<?xml version="1.0" encoding="utf-8" standalone="no"?>
<!DOCTYPE svg PUBLIC "-//W3C//DTD SVG 1.1//EN"
  "http://www.w3.org/Graphics/SVG/1.1/DTD/svg11.dtd">
<svg height="360pt" version="1.1" viewBox="0 0 1080 360" width="1080pt" xmlns="http://www.w3.org/2000/svg" xmlns:xlink="http://www.w3.org/1999/xlink">
 <metadata>
  <rdf:RDF xmlns:cc="http://creativecommons.org/ns#" xmlns:dc="http://purl.org/dc/elements/1.1/" xmlns:rdf="http://www.w3.org/1999/02/22-rdf-syntax-ns#">
   <cc:Work>
    <dc:type rdf:resource="http://purl.org/dc/dcmitype/StillImage"/>
    <dc:date>2022-04-07T14:57:53.260418</dc:date>
    <dc:format>image/svg+xml</dc:format>
    <dc:creator>
     <cc:Agent>
      <dc:title>Matplotlib v3.4.1, https://matplotlib.org/</dc:title>
     </cc:Agent>
    </dc:creator>
   </cc:Work>
  </rdf:RDF>
 </metadata>
 <defs>
  <style type="text/css">*{stroke-linecap:butt;stroke-linejoin:round;}</style>
 </defs>
 <g id="figure_1">
  <g id="patch_1">
   <path d="M 0 360 
L 1080 360 
L 1080 0 
L 0 0 
z
" style="fill:none;"/>
  </g>
  <g id="axes_1">
   <g id="patch_2">
    <path d="M 135 315 
L 381.176471 315 
L 381.176471 43.2 
L 135 43.2 
z
" style="fill:#ffffff;"/>
   </g>
   <g id="patch_3">
    <path clip-path="url(#p8313cc85fd)" d="M 179.868076 315 
L 190.29743 315 
L 190.29743 276.171429 
L 179.868076 276.171429 
z
" style="fill:#00a4cc;opacity:0.4;"/>
   </g>
   <g id="patch_4">
    <path clip-path="url(#p8313cc85fd)" d="M 190.29743 315 
L 200.726785 315 
L 200.726785 276.171429 
L 190.29743 276.171429 
z
" style="fill:#00a4cc;opacity:0.4;"/>
   </g>
   <g id="patch_5">
    <path clip-path="url(#p8313cc85fd)" d="M 200.726785 315 
L 211.15614 315 
L 211.15614 224.4 
L 200.726785 224.4 
z
" style="fill:#00a4cc;opacity:0.4;"/>
   </g>
   <g id="patch_6">
    <path clip-path="url(#p8313cc85fd)" d="M 211.15614 315 
L 221.585494 315 
L 221.585494 172.628571 
L 211.15614 172.628571 
z
" style="fill:#00a4cc;opacity:0.4;"/>
   </g>
   <g id="patch_7">
    <path clip-path="url(#p8313cc85fd)" d="M 221.585494 315 
L 232.014849 315 
L 232.014849 146.742857 
L 221.585494 146.742857 
z
" style="fill:#00a4cc;opacity:0.4;"/>
   </g>
   <g id="patch_8">
    <path clip-path="url(#p8313cc85fd)" d="M 232.014849 315 
L 242.444203 315 
L 242.444203 82.028571 
L 232.014849 82.028571 
z
" style="fill:#00a4cc;opacity:0.4;"/>
   </g>
   <g id="patch_9">
    <path clip-path="url(#p8313cc85fd)" d="M 242.444203 315 
L 252.873558 315 
L 252.873558 146.742857 
L 242.444203 146.742857 
z
" style="fill:#00a4cc;opacity:0.4;"/>
   </g>
   <g id="patch_10">
    <path clip-path="url(#p8313cc85fd)" d="M 252.873558 315 
L 263.302913 315 
L 263.302913 56.142857 
L 252.873558 56.142857 
z
" style="fill:#00a4cc;opacity:0.4;"/>
   </g>
   <g id="patch_11">
    <path clip-path="url(#p8313cc85fd)" d="M 263.302913 315 
L 273.732267 315 
L 273.732267 172.628571 
L 263.302913 172.628571 
z
" style="fill:#00a4cc;opacity:0.4;"/>
   </g>
   <g id="patch_12">
    <path clip-path="url(#p8313cc85fd)" d="M 273.732267 315 
L 284.161622 315 
L 284.161622 276.171429 
L 273.732267 276.171429 
z
" style="fill:#00a4cc;opacity:0.4;"/>
   </g>
   <g id="patch_13">
    <path clip-path="url(#p8313cc85fd)" d="M 284.161622 315 
L 294.590976 315 
L 294.590976 224.4 
L 284.161622 224.4 
z
" style="fill:#00a4cc;opacity:0.4;"/>
   </g>
   <g id="patch_14">
    <path clip-path="url(#p8313cc85fd)" d="M 294.590976 315 
L 305.020331 315 
L 305.020331 276.171429 
L 294.590976 276.171429 
z
" style="fill:#00a4cc;opacity:0.4;"/>
   </g>
   <g id="patch_15">
    <path clip-path="url(#p8313cc85fd)" d="M 305.020331 315 
L 315.449686 315 
L 315.449686 315 
L 305.020331 315 
z
" style="fill:#00a4cc;opacity:0.4;"/>
   </g>
   <g id="patch_16">
    <path clip-path="url(#p8313cc85fd)" d="M 315.449686 315 
L 325.87904 315 
L 325.87904 315 
L 315.449686 315 
z
" style="fill:#00a4cc;opacity:0.4;"/>
   </g>
   <g id="patch_17">
    <path clip-path="url(#p8313cc85fd)" d="M 325.87904 315 
L 336.308395 315 
L 336.308395 302.057143 
L 325.87904 302.057143 
z
" style="fill:#00a4cc;opacity:0.4;"/>
   </g>
   <g id="matplotlib.axis_1">
    <g id="xtick_1">
     <g id="line2d_1">
      <defs>
       <path d="M 0 0 
L 0 3.5 
" id="mdcdb9292b7" style="stroke:#000000;stroke-width:0.8;"/>
      </defs>
      <g>
       <use style="stroke:#000000;stroke-width:0.8;" x="179.868076" xlink:href="#mdcdb9292b7" y="315"/>
      </g>
     </g>
     <g id="text_1">
      <!-- 0 -->
      <g transform="translate(176.686826 329.598437)scale(0.1 -0.1)">
       <defs>
        <path d="M 2034 4250 
Q 1547 4250 1301 3770 
Q 1056 3291 1056 2328 
Q 1056 1369 1301 889 
Q 1547 409 2034 409 
Q 2525 409 2770 889 
Q 3016 1369 3016 2328 
Q 3016 3291 2770 3770 
Q 2525 4250 2034 4250 
z
M 2034 4750 
Q 2819 4750 3233 4129 
Q 3647 3509 3647 2328 
Q 3647 1150 3233 529 
Q 2819 -91 2034 -91 
Q 1250 -91 836 529 
Q 422 1150 422 2328 
Q 422 3509 836 4129 
Q 1250 4750 2034 4750 
z
" id="DejaVuSans-30" transform="scale(0.015625)"/>
       </defs>
       <use xlink:href="#DejaVuSans-30"/>
      </g>
     </g>
    </g>
    <g id="xtick_2">
     <g id="line2d_2">
      <g>
       <use style="stroke:#000000;stroke-width:0.8;" x="225.879934" xlink:href="#mdcdb9292b7" y="315"/>
      </g>
     </g>
     <g id="text_2">
      <!-- 5 -->
      <g transform="translate(222.698684 329.598437)scale(0.1 -0.1)">
       <defs>
        <path d="M 691 4666 
L 3169 4666 
L 3169 4134 
L 1269 4134 
L 1269 2991 
Q 1406 3038 1543 3061 
Q 1681 3084 1819 3084 
Q 2600 3084 3056 2656 
Q 3513 2228 3513 1497 
Q 3513 744 3044 326 
Q 2575 -91 1722 -91 
Q 1428 -91 1123 -41 
Q 819 9 494 109 
L 494 744 
Q 775 591 1075 516 
Q 1375 441 1709 441 
Q 2250 441 2565 725 
Q 2881 1009 2881 1497 
Q 2881 1984 2565 2268 
Q 2250 2553 1709 2553 
Q 1456 2553 1204 2497 
Q 953 2441 691 2322 
L 691 4666 
z
" id="DejaVuSans-35" transform="scale(0.015625)"/>
       </defs>
       <use xlink:href="#DejaVuSans-35"/>
      </g>
     </g>
    </g>
    <g id="xtick_3">
     <g id="line2d_3">
      <g>
       <use style="stroke:#000000;stroke-width:0.8;" x="271.891793" xlink:href="#mdcdb9292b7" y="315"/>
      </g>
     </g>
     <g id="text_3">
      <!-- 10 -->
      <g transform="translate(265.529293 329.598437)scale(0.1 -0.1)">
       <defs>
        <path d="M 794 531 
L 1825 531 
L 1825 4091 
L 703 3866 
L 703 4441 
L 1819 4666 
L 2450 4666 
L 2450 531 
L 3481 531 
L 3481 0 
L 794 0 
L 794 531 
z
" id="DejaVuSans-31" transform="scale(0.015625)"/>
       </defs>
       <use xlink:href="#DejaVuSans-31"/>
       <use x="63.623047" xlink:href="#DejaVuSans-30"/>
      </g>
     </g>
    </g>
    <g id="xtick_4">
     <g id="line2d_4">
      <g>
       <use style="stroke:#000000;stroke-width:0.8;" x="317.903651" xlink:href="#mdcdb9292b7" y="315"/>
      </g>
     </g>
     <g id="text_4">
      <!-- 15 -->
      <g transform="translate(311.541151 329.598437)scale(0.1 -0.1)">
       <use xlink:href="#DejaVuSans-31"/>
       <use x="63.623047" xlink:href="#DejaVuSans-35"/>
      </g>
     </g>
    </g>
    <g id="xtick_5">
     <g id="line2d_5">
      <g>
       <use style="stroke:#000000;stroke-width:0.8;" x="363.91551" xlink:href="#mdcdb9292b7" y="315"/>
      </g>
     </g>
     <g id="text_5">
      <!-- 20 -->
      <g transform="translate(357.55301 329.598437)scale(0.1 -0.1)">
       <defs>
        <path d="M 1228 531 
L 3431 531 
L 3431 0 
L 469 0 
L 469 531 
Q 828 903 1448 1529 
Q 2069 2156 2228 2338 
Q 2531 2678 2651 2914 
Q 2772 3150 2772 3378 
Q 2772 3750 2511 3984 
Q 2250 4219 1831 4219 
Q 1534 4219 1204 4116 
Q 875 4013 500 3803 
L 500 4441 
Q 881 4594 1212 4672 
Q 1544 4750 1819 4750 
Q 2544 4750 2975 4387 
Q 3406 4025 3406 3419 
Q 3406 3131 3298 2873 
Q 3191 2616 2906 2266 
Q 2828 2175 2409 1742 
Q 1991 1309 1228 531 
z
" id="DejaVuSans-32" transform="scale(0.015625)"/>
       </defs>
       <use xlink:href="#DejaVuSans-32"/>
       <use x="63.623047" xlink:href="#DejaVuSans-30"/>
      </g>
     </g>
    </g>
    <g id="text_6">
     <!-- Sum score -->
     <g transform="translate(231.853079 343.276563)scale(0.1 -0.1)">
      <defs>
       <path d="M 3425 4513 
L 3425 3897 
Q 3066 4069 2747 4153 
Q 2428 4238 2131 4238 
Q 1616 4238 1336 4038 
Q 1056 3838 1056 3469 
Q 1056 3159 1242 3001 
Q 1428 2844 1947 2747 
L 2328 2669 
Q 3034 2534 3370 2195 
Q 3706 1856 3706 1288 
Q 3706 609 3251 259 
Q 2797 -91 1919 -91 
Q 1588 -91 1214 -16 
Q 841 59 441 206 
L 441 856 
Q 825 641 1194 531 
Q 1563 422 1919 422 
Q 2459 422 2753 634 
Q 3047 847 3047 1241 
Q 3047 1584 2836 1778 
Q 2625 1972 2144 2069 
L 1759 2144 
Q 1053 2284 737 2584 
Q 422 2884 422 3419 
Q 422 4038 858 4394 
Q 1294 4750 2059 4750 
Q 2388 4750 2728 4690 
Q 3069 4631 3425 4513 
z
" id="DejaVuSans-53" transform="scale(0.015625)"/>
       <path d="M 544 1381 
L 544 3500 
L 1119 3500 
L 1119 1403 
Q 1119 906 1312 657 
Q 1506 409 1894 409 
Q 2359 409 2629 706 
Q 2900 1003 2900 1516 
L 2900 3500 
L 3475 3500 
L 3475 0 
L 2900 0 
L 2900 538 
Q 2691 219 2414 64 
Q 2138 -91 1772 -91 
Q 1169 -91 856 284 
Q 544 659 544 1381 
z
M 1991 3584 
L 1991 3584 
z
" id="DejaVuSans-75" transform="scale(0.015625)"/>
       <path d="M 3328 2828 
Q 3544 3216 3844 3400 
Q 4144 3584 4550 3584 
Q 5097 3584 5394 3201 
Q 5691 2819 5691 2113 
L 5691 0 
L 5113 0 
L 5113 2094 
Q 5113 2597 4934 2840 
Q 4756 3084 4391 3084 
Q 3944 3084 3684 2787 
Q 3425 2491 3425 1978 
L 3425 0 
L 2847 0 
L 2847 2094 
Q 2847 2600 2669 2842 
Q 2491 3084 2119 3084 
Q 1678 3084 1418 2786 
Q 1159 2488 1159 1978 
L 1159 0 
L 581 0 
L 581 3500 
L 1159 3500 
L 1159 2956 
Q 1356 3278 1631 3431 
Q 1906 3584 2284 3584 
Q 2666 3584 2933 3390 
Q 3200 3197 3328 2828 
z
" id="DejaVuSans-6d" transform="scale(0.015625)"/>
       <path id="DejaVuSans-20" transform="scale(0.015625)"/>
       <path d="M 2834 3397 
L 2834 2853 
Q 2591 2978 2328 3040 
Q 2066 3103 1784 3103 
Q 1356 3103 1142 2972 
Q 928 2841 928 2578 
Q 928 2378 1081 2264 
Q 1234 2150 1697 2047 
L 1894 2003 
Q 2506 1872 2764 1633 
Q 3022 1394 3022 966 
Q 3022 478 2636 193 
Q 2250 -91 1575 -91 
Q 1294 -91 989 -36 
Q 684 19 347 128 
L 347 722 
Q 666 556 975 473 
Q 1284 391 1588 391 
Q 1994 391 2212 530 
Q 2431 669 2431 922 
Q 2431 1156 2273 1281 
Q 2116 1406 1581 1522 
L 1381 1569 
Q 847 1681 609 1914 
Q 372 2147 372 2553 
Q 372 3047 722 3315 
Q 1072 3584 1716 3584 
Q 2034 3584 2315 3537 
Q 2597 3491 2834 3397 
z
" id="DejaVuSans-73" transform="scale(0.015625)"/>
       <path d="M 3122 3366 
L 3122 2828 
Q 2878 2963 2633 3030 
Q 2388 3097 2138 3097 
Q 1578 3097 1268 2742 
Q 959 2388 959 1747 
Q 959 1106 1268 751 
Q 1578 397 2138 397 
Q 2388 397 2633 464 
Q 2878 531 3122 666 
L 3122 134 
Q 2881 22 2623 -34 
Q 2366 -91 2075 -91 
Q 1284 -91 818 406 
Q 353 903 353 1747 
Q 353 2603 823 3093 
Q 1294 3584 2113 3584 
Q 2378 3584 2631 3529 
Q 2884 3475 3122 3366 
z
" id="DejaVuSans-63" transform="scale(0.015625)"/>
       <path d="M 1959 3097 
Q 1497 3097 1228 2736 
Q 959 2375 959 1747 
Q 959 1119 1226 758 
Q 1494 397 1959 397 
Q 2419 397 2687 759 
Q 2956 1122 2956 1747 
Q 2956 2369 2687 2733 
Q 2419 3097 1959 3097 
z
M 1959 3584 
Q 2709 3584 3137 3096 
Q 3566 2609 3566 1747 
Q 3566 888 3137 398 
Q 2709 -91 1959 -91 
Q 1206 -91 779 398 
Q 353 888 353 1747 
Q 353 2609 779 3096 
Q 1206 3584 1959 3584 
z
" id="DejaVuSans-6f" transform="scale(0.015625)"/>
       <path d="M 2631 2963 
Q 2534 3019 2420 3045 
Q 2306 3072 2169 3072 
Q 1681 3072 1420 2755 
Q 1159 2438 1159 1844 
L 1159 0 
L 581 0 
L 581 3500 
L 1159 3500 
L 1159 2956 
Q 1341 3275 1631 3429 
Q 1922 3584 2338 3584 
Q 2397 3584 2469 3576 
Q 2541 3569 2628 3553 
L 2631 2963 
z
" id="DejaVuSans-72" transform="scale(0.015625)"/>
       <path d="M 3597 1894 
L 3597 1613 
L 953 1613 
Q 991 1019 1311 708 
Q 1631 397 2203 397 
Q 2534 397 2845 478 
Q 3156 559 3463 722 
L 3463 178 
Q 3153 47 2828 -22 
Q 2503 -91 2169 -91 
Q 1331 -91 842 396 
Q 353 884 353 1716 
Q 353 2575 817 3079 
Q 1281 3584 2069 3584 
Q 2775 3584 3186 3129 
Q 3597 2675 3597 1894 
z
M 3022 2063 
Q 3016 2534 2758 2815 
Q 2500 3097 2075 3097 
Q 1594 3097 1305 2825 
Q 1016 2553 972 2059 
L 3022 2063 
z
" id="DejaVuSans-65" transform="scale(0.015625)"/>
      </defs>
      <use xlink:href="#DejaVuSans-53"/>
      <use x="63.476562" xlink:href="#DejaVuSans-75"/>
      <use x="126.855469" xlink:href="#DejaVuSans-6d"/>
      <use x="224.267578" xlink:href="#DejaVuSans-20"/>
      <use x="256.054688" xlink:href="#DejaVuSans-73"/>
      <use x="308.154297" xlink:href="#DejaVuSans-63"/>
      <use x="363.134766" xlink:href="#DejaVuSans-6f"/>
      <use x="424.316406" xlink:href="#DejaVuSans-72"/>
      <use x="463.179688" xlink:href="#DejaVuSans-65"/>
     </g>
    </g>
   </g>
   <g id="matplotlib.axis_2">
    <g id="ytick_1">
     <g id="line2d_6">
      <defs>
       <path d="M 0 0 
L -3.5 0 
" id="m9ad07a87ee" style="stroke:#000000;stroke-width:0.8;"/>
      </defs>
      <g>
       <use style="stroke:#000000;stroke-width:0.8;" x="135" xlink:href="#m9ad07a87ee" y="315"/>
      </g>
     </g>
     <g id="text_7">
      <!-- 0.00 -->
      <g transform="translate(105.734375 318.799219)scale(0.1 -0.1)">
       <defs>
        <path d="M 684 794 
L 1344 794 
L 1344 0 
L 684 0 
L 684 794 
z
" id="DejaVuSans-2e" transform="scale(0.015625)"/>
       </defs>
       <use xlink:href="#DejaVuSans-30"/>
       <use x="63.623047" xlink:href="#DejaVuSans-2e"/>
       <use x="95.410156" xlink:href="#DejaVuSans-30"/>
       <use x="159.033203" xlink:href="#DejaVuSans-30"/>
      </g>
     </g>
    </g>
    <g id="ytick_2">
     <g id="line2d_7">
      <g>
       <use style="stroke:#000000;stroke-width:0.8;" x="135" xlink:href="#m9ad07a87ee" y="281.849029"/>
      </g>
     </g>
     <g id="text_8">
      <!-- 0.02 -->
      <g transform="translate(105.734375 285.648247)scale(0.1 -0.1)">
       <use xlink:href="#DejaVuSans-30"/>
       <use x="63.623047" xlink:href="#DejaVuSans-2e"/>
       <use x="95.410156" xlink:href="#DejaVuSans-30"/>
       <use x="159.033203" xlink:href="#DejaVuSans-32"/>
      </g>
     </g>
    </g>
    <g id="ytick_3">
     <g id="line2d_8">
      <g>
       <use style="stroke:#000000;stroke-width:0.8;" x="135" xlink:href="#m9ad07a87ee" y="248.698057"/>
      </g>
     </g>
     <g id="text_9">
      <!-- 0.04 -->
      <g transform="translate(105.734375 252.497276)scale(0.1 -0.1)">
       <defs>
        <path d="M 2419 4116 
L 825 1625 
L 2419 1625 
L 2419 4116 
z
M 2253 4666 
L 3047 4666 
L 3047 1625 
L 3713 1625 
L 3713 1100 
L 3047 1100 
L 3047 0 
L 2419 0 
L 2419 1100 
L 313 1100 
L 313 1709 
L 2253 4666 
z
" id="DejaVuSans-34" transform="scale(0.015625)"/>
       </defs>
       <use xlink:href="#DejaVuSans-30"/>
       <use x="63.623047" xlink:href="#DejaVuSans-2e"/>
       <use x="95.410156" xlink:href="#DejaVuSans-30"/>
       <use x="159.033203" xlink:href="#DejaVuSans-34"/>
      </g>
     </g>
    </g>
    <g id="ytick_4">
     <g id="line2d_9">
      <g>
       <use style="stroke:#000000;stroke-width:0.8;" x="135" xlink:href="#m9ad07a87ee" y="215.547086"/>
      </g>
     </g>
     <g id="text_10">
      <!-- 0.06 -->
      <g transform="translate(105.734375 219.346304)scale(0.1 -0.1)">
       <defs>
        <path d="M 2113 2584 
Q 1688 2584 1439 2293 
Q 1191 2003 1191 1497 
Q 1191 994 1439 701 
Q 1688 409 2113 409 
Q 2538 409 2786 701 
Q 3034 994 3034 1497 
Q 3034 2003 2786 2293 
Q 2538 2584 2113 2584 
z
M 3366 4563 
L 3366 3988 
Q 3128 4100 2886 4159 
Q 2644 4219 2406 4219 
Q 1781 4219 1451 3797 
Q 1122 3375 1075 2522 
Q 1259 2794 1537 2939 
Q 1816 3084 2150 3084 
Q 2853 3084 3261 2657 
Q 3669 2231 3669 1497 
Q 3669 778 3244 343 
Q 2819 -91 2113 -91 
Q 1303 -91 875 529 
Q 447 1150 447 2328 
Q 447 3434 972 4092 
Q 1497 4750 2381 4750 
Q 2619 4750 2861 4703 
Q 3103 4656 3366 4563 
z
" id="DejaVuSans-36" transform="scale(0.015625)"/>
       </defs>
       <use xlink:href="#DejaVuSans-30"/>
       <use x="63.623047" xlink:href="#DejaVuSans-2e"/>
       <use x="95.410156" xlink:href="#DejaVuSans-30"/>
       <use x="159.033203" xlink:href="#DejaVuSans-36"/>
      </g>
     </g>
    </g>
    <g id="ytick_5">
     <g id="line2d_10">
      <g>
       <use style="stroke:#000000;stroke-width:0.8;" x="135" xlink:href="#m9ad07a87ee" y="182.396114"/>
      </g>
     </g>
     <g id="text_11">
      <!-- 0.08 -->
      <g transform="translate(105.734375 186.195333)scale(0.1 -0.1)">
       <defs>
        <path d="M 2034 2216 
Q 1584 2216 1326 1975 
Q 1069 1734 1069 1313 
Q 1069 891 1326 650 
Q 1584 409 2034 409 
Q 2484 409 2743 651 
Q 3003 894 3003 1313 
Q 3003 1734 2745 1975 
Q 2488 2216 2034 2216 
z
M 1403 2484 
Q 997 2584 770 2862 
Q 544 3141 544 3541 
Q 544 4100 942 4425 
Q 1341 4750 2034 4750 
Q 2731 4750 3128 4425 
Q 3525 4100 3525 3541 
Q 3525 3141 3298 2862 
Q 3072 2584 2669 2484 
Q 3125 2378 3379 2068 
Q 3634 1759 3634 1313 
Q 3634 634 3220 271 
Q 2806 -91 2034 -91 
Q 1263 -91 848 271 
Q 434 634 434 1313 
Q 434 1759 690 2068 
Q 947 2378 1403 2484 
z
M 1172 3481 
Q 1172 3119 1398 2916 
Q 1625 2713 2034 2713 
Q 2441 2713 2670 2916 
Q 2900 3119 2900 3481 
Q 2900 3844 2670 4047 
Q 2441 4250 2034 4250 
Q 1625 4250 1398 4047 
Q 1172 3844 1172 3481 
z
" id="DejaVuSans-38" transform="scale(0.015625)"/>
       </defs>
       <use xlink:href="#DejaVuSans-30"/>
       <use x="63.623047" xlink:href="#DejaVuSans-2e"/>
       <use x="95.410156" xlink:href="#DejaVuSans-30"/>
       <use x="159.033203" xlink:href="#DejaVuSans-38"/>
      </g>
     </g>
    </g>
    <g id="ytick_6">
     <g id="line2d_11">
      <g>
       <use style="stroke:#000000;stroke-width:0.8;" x="135" xlink:href="#m9ad07a87ee" y="149.245143"/>
      </g>
     </g>
     <g id="text_12">
      <!-- 0.10 -->
      <g transform="translate(105.734375 153.044362)scale(0.1 -0.1)">
       <use xlink:href="#DejaVuSans-30"/>
       <use x="63.623047" xlink:href="#DejaVuSans-2e"/>
       <use x="95.410156" xlink:href="#DejaVuSans-31"/>
       <use x="159.033203" xlink:href="#DejaVuSans-30"/>
      </g>
     </g>
    </g>
    <g id="ytick_7">
     <g id="line2d_12">
      <g>
       <use style="stroke:#000000;stroke-width:0.8;" x="135" xlink:href="#m9ad07a87ee" y="116.094171"/>
      </g>
     </g>
     <g id="text_13">
      <!-- 0.12 -->
      <g transform="translate(105.734375 119.89339)scale(0.1 -0.1)">
       <use xlink:href="#DejaVuSans-30"/>
       <use x="63.623047" xlink:href="#DejaVuSans-2e"/>
       <use x="95.410156" xlink:href="#DejaVuSans-31"/>
       <use x="159.033203" xlink:href="#DejaVuSans-32"/>
      </g>
     </g>
    </g>
    <g id="ytick_8">
     <g id="line2d_13">
      <g>
       <use style="stroke:#000000;stroke-width:0.8;" x="135" xlink:href="#m9ad07a87ee" y="82.9432"/>
      </g>
     </g>
     <g id="text_14">
      <!-- 0.14 -->
      <g transform="translate(105.734375 86.742419)scale(0.1 -0.1)">
       <use xlink:href="#DejaVuSans-30"/>
       <use x="63.623047" xlink:href="#DejaVuSans-2e"/>
       <use x="95.410156" xlink:href="#DejaVuSans-31"/>
       <use x="159.033203" xlink:href="#DejaVuSans-34"/>
      </g>
     </g>
    </g>
    <g id="ytick_9">
     <g id="line2d_14">
      <g>
       <use style="stroke:#000000;stroke-width:0.8;" x="135" xlink:href="#m9ad07a87ee" y="49.792229"/>
      </g>
     </g>
     <g id="text_15">
      <!-- 0.16 -->
      <g transform="translate(105.734375 53.591447)scale(0.1 -0.1)">
       <use xlink:href="#DejaVuSans-30"/>
       <use x="63.623047" xlink:href="#DejaVuSans-2e"/>
       <use x="95.410156" xlink:href="#DejaVuSans-31"/>
       <use x="159.033203" xlink:href="#DejaVuSans-36"/>
      </g>
     </g>
    </g>
    <g id="text_16">
     <!-- Density -->
     <g transform="translate(99.654687 198.108594)rotate(-90)scale(0.1 -0.1)">
      <defs>
       <path d="M 1259 4147 
L 1259 519 
L 2022 519 
Q 2988 519 3436 956 
Q 3884 1394 3884 2338 
Q 3884 3275 3436 3711 
Q 2988 4147 2022 4147 
L 1259 4147 
z
M 628 4666 
L 1925 4666 
Q 3281 4666 3915 4102 
Q 4550 3538 4550 2338 
Q 4550 1131 3912 565 
Q 3275 0 1925 0 
L 628 0 
L 628 4666 
z
" id="DejaVuSans-44" transform="scale(0.015625)"/>
       <path d="M 3513 2113 
L 3513 0 
L 2938 0 
L 2938 2094 
Q 2938 2591 2744 2837 
Q 2550 3084 2163 3084 
Q 1697 3084 1428 2787 
Q 1159 2491 1159 1978 
L 1159 0 
L 581 0 
L 581 3500 
L 1159 3500 
L 1159 2956 
Q 1366 3272 1645 3428 
Q 1925 3584 2291 3584 
Q 2894 3584 3203 3211 
Q 3513 2838 3513 2113 
z
" id="DejaVuSans-6e" transform="scale(0.015625)"/>
       <path d="M 603 3500 
L 1178 3500 
L 1178 0 
L 603 0 
L 603 3500 
z
M 603 4863 
L 1178 4863 
L 1178 4134 
L 603 4134 
L 603 4863 
z
" id="DejaVuSans-69" transform="scale(0.015625)"/>
       <path d="M 1172 4494 
L 1172 3500 
L 2356 3500 
L 2356 3053 
L 1172 3053 
L 1172 1153 
Q 1172 725 1289 603 
Q 1406 481 1766 481 
L 2356 481 
L 2356 0 
L 1766 0 
Q 1100 0 847 248 
Q 594 497 594 1153 
L 594 3053 
L 172 3053 
L 172 3500 
L 594 3500 
L 594 4494 
L 1172 4494 
z
" id="DejaVuSans-74" transform="scale(0.015625)"/>
       <path d="M 2059 -325 
Q 1816 -950 1584 -1140 
Q 1353 -1331 966 -1331 
L 506 -1331 
L 506 -850 
L 844 -850 
Q 1081 -850 1212 -737 
Q 1344 -625 1503 -206 
L 1606 56 
L 191 3500 
L 800 3500 
L 1894 763 
L 2988 3500 
L 3597 3500 
L 2059 -325 
z
" id="DejaVuSans-79" transform="scale(0.015625)"/>
      </defs>
      <use xlink:href="#DejaVuSans-44"/>
      <use x="77.001953" xlink:href="#DejaVuSans-65"/>
      <use x="138.525391" xlink:href="#DejaVuSans-6e"/>
      <use x="201.904297" xlink:href="#DejaVuSans-73"/>
      <use x="254.003906" xlink:href="#DejaVuSans-69"/>
      <use x="281.787109" xlink:href="#DejaVuSans-74"/>
      <use x="320.996094" xlink:href="#DejaVuSans-79"/>
     </g>
    </g>
   </g>
   <g id="line2d_15">
    <path clip-path="url(#p8313cc85fd)" d="M 146.18984 314.848415 
L 149.714198 314.703072 
L 153.238557 314.364259 
L 156.762916 313.718967 
L 158.525096 313.238133 
L 160.287275 312.628767 
L 162.049455 311.876307 
L 163.811634 310.970373 
L 165.573814 309.906095 
L 167.335993 308.684784 
L 170.860352 305.804347 
L 174.384711 302.423636 
L 177.90907 298.605908 
L 181.433429 294.263437 
L 183.195608 291.806484 
L 184.957788 289.083626 
L 186.719967 286.025975 
L 188.482147 282.561005 
L 190.244326 278.618859 
L 192.006506 274.138754 
L 193.768685 269.074748 
L 195.530864 263.400225 
L 197.293044 257.110661 
L 199.055223 250.224491 
L 200.817403 242.782096 
L 204.341762 226.482959 
L 207.866121 208.849672 
L 216.677018 163.783325 
L 220.201377 147.255476 
L 221.963556 139.682505 
L 223.725736 132.710614 
L 225.487915 126.453902 
L 227.250095 121.02933 
L 229.012274 116.549949 
L 230.774454 113.115823 
L 232.536633 110.803729 
L 234.298813 109.657119 
L 236.060992 109.677981 
L 237.823172 110.822058 
L 239.585351 112.998471 
L 241.34753 116.074172 
L 243.10971 119.882924 
L 244.871889 124.237896 
L 248.396248 133.825534 
L 251.920607 143.493327 
L 255.444966 152.433884 
L 258.969325 160.547444 
L 264.255863 172.329377 
L 267.780222 180.959105 
L 271.304581 190.651125 
L 276.59112 206.573104 
L 280.115479 217.16608 
L 283.639837 227.131468 
L 288.926376 240.997736 
L 294.212914 254.953111 
L 297.737273 264.886935 
L 304.785991 284.987148 
L 306.54817 289.54779 
L 308.31035 293.738192 
L 310.072529 297.489676 
L 311.834709 300.755696 
L 313.596888 303.513393 
L 315.359068 305.762858 
L 317.121247 307.524694 
L 318.883427 308.836528 
L 320.645606 309.749029 
L 322.407786 310.321915 
L 324.169965 310.620189 
L 325.932145 310.710721 
L 329.456503 310.527296 
L 334.743042 310.157378 
L 338.267401 310.263774 
L 341.79176 310.750962 
L 345.316119 311.52776 
L 352.364836 313.262102 
L 355.889195 313.936384 
L 359.413554 314.407559 
L 362.937913 314.694558 
L 368.224452 314.867977 
L 369.986631 314.871607 
L 369.986631 314.871607 
" style="fill:none;stroke:#00a4cc;stroke-linecap:square;stroke-width:1.5;"/>
   </g>
   <g id="patch_18">
    <path d="M 135 315 
L 135 43.2 
" style="fill:none;stroke:#000000;stroke-linecap:square;stroke-linejoin:miter;stroke-width:0.8;"/>
   </g>
   <g id="patch_19">
    <path d="M 381.176471 315 
L 381.176471 43.2 
" style="fill:none;stroke:#000000;stroke-linecap:square;stroke-linejoin:miter;stroke-width:0.8;"/>
   </g>
   <g id="patch_20">
    <path d="M 135 315 
L 381.176471 315 
" style="fill:none;stroke:#000000;stroke-linecap:square;stroke-linejoin:miter;stroke-width:0.8;"/>
   </g>
   <g id="patch_21">
    <path d="M 135 43.2 
L 381.176471 43.2 
" style="fill:none;stroke:#000000;stroke-linecap:square;stroke-linejoin:miter;stroke-width:0.8;"/>
   </g>
   <g id="text_17">
    <!-- PDI -->
    <g transform="translate(248.080423 37.2)scale(0.12 -0.12)">
     <defs>
      <path d="M 1259 4147 
L 1259 2394 
L 2053 2394 
Q 2494 2394 2734 2622 
Q 2975 2850 2975 3272 
Q 2975 3691 2734 3919 
Q 2494 4147 2053 4147 
L 1259 4147 
z
M 628 4666 
L 2053 4666 
Q 2838 4666 3239 4311 
Q 3641 3956 3641 3272 
Q 3641 2581 3239 2228 
Q 2838 1875 2053 1875 
L 1259 1875 
L 1259 0 
L 628 0 
L 628 4666 
z
" id="DejaVuSans-50" transform="scale(0.015625)"/>
      <path d="M 628 4666 
L 1259 4666 
L 1259 0 
L 628 0 
L 628 4666 
z
" id="DejaVuSans-49" transform="scale(0.015625)"/>
     </defs>
     <use xlink:href="#DejaVuSans-50"/>
     <use x="60.302734" xlink:href="#DejaVuSans-44"/>
     <use x="137.304688" xlink:href="#DejaVuSans-49"/>
    </g>
   </g>
  </g>
  <g id="axes_2">
   <g id="patch_22">
    <path d="M 430.411765 315 
L 676.588235 315 
L 676.588235 43.2 
L 430.411765 43.2 
z
" style="fill:#ffffff;"/>
   </g>
   <g id="patch_23">
    <path clip-path="url(#p3b498be377)" d="M 479.079641 315 
L 489.002355 315 
L 489.002355 133.8 
L 479.079641 133.8 
z
" style="fill:#fbde44;opacity:0.4;"/>
   </g>
   <g id="patch_24">
    <path clip-path="url(#p3b498be377)" d="M 489.002355 315 
L 498.92507 315 
L 498.92507 56.142857 
L 489.002355 56.142857 
z
" style="fill:#fbde44;opacity:0.4;"/>
   </g>
   <g id="patch_25">
    <path clip-path="url(#p3b498be377)" d="M 498.92507 315 
L 508.847784 315 
L 508.847784 185.571429 
L 498.92507 185.571429 
z
" style="fill:#fbde44;opacity:0.4;"/>
   </g>
   <g id="patch_26">
    <path clip-path="url(#p3b498be377)" d="M 508.847784 315 
L 518.770499 315 
L 518.770499 94.971429 
L 508.847784 94.971429 
z
" style="fill:#fbde44;opacity:0.4;"/>
   </g>
   <g id="patch_27">
    <path clip-path="url(#p3b498be377)" d="M 518.770499 315 
L 528.693214 315 
L 528.693214 107.914286 
L 518.770499 107.914286 
z
" style="fill:#fbde44;opacity:0.4;"/>
   </g>
   <g id="patch_28">
    <path clip-path="url(#p3b498be377)" d="M 528.693214 315 
L 538.615928 315 
L 538.615928 250.285714 
L 528.693214 250.285714 
z
" style="fill:#fbde44;opacity:0.4;"/>
   </g>
   <g id="patch_29">
    <path clip-path="url(#p3b498be377)" d="M 538.615928 315 
L 548.538643 315 
L 548.538643 198.514286 
L 538.615928 198.514286 
z
" style="fill:#fbde44;opacity:0.4;"/>
   </g>
   <g id="patch_30">
    <path clip-path="url(#p3b498be377)" d="M 548.538643 315 
L 558.461357 315 
L 558.461357 224.4 
L 548.538643 224.4 
z
" style="fill:#fbde44;opacity:0.4;"/>
   </g>
   <g id="patch_31">
    <path clip-path="url(#p3b498be377)" d="M 558.461357 315 
L 568.384072 315 
L 568.384072 237.342857 
L 558.461357 237.342857 
z
" style="fill:#fbde44;opacity:0.4;"/>
   </g>
   <g id="patch_32">
    <path clip-path="url(#p3b498be377)" d="M 568.384072 315 
L 578.306786 315 
L 578.306786 263.228571 
L 568.384072 263.228571 
z
" style="fill:#fbde44;opacity:0.4;"/>
   </g>
   <g id="patch_33">
    <path clip-path="url(#p3b498be377)" d="M 578.306786 315 
L 588.229501 315 
L 588.229501 289.114286 
L 578.306786 289.114286 
z
" style="fill:#fbde44;opacity:0.4;"/>
   </g>
   <g id="patch_34">
    <path clip-path="url(#p3b498be377)" d="M 588.229501 315 
L 598.152216 315 
L 598.152216 315 
L 588.229501 315 
z
" style="fill:#fbde44;opacity:0.4;"/>
   </g>
   <g id="patch_35">
    <path clip-path="url(#p3b498be377)" d="M 598.152216 315 
L 608.07493 315 
L 608.07493 289.114286 
L 598.152216 289.114286 
z
" style="fill:#fbde44;opacity:0.4;"/>
   </g>
   <g id="patch_36">
    <path clip-path="url(#p3b498be377)" d="M 608.07493 315 
L 617.997645 315 
L 617.997645 315 
L 608.07493 315 
z
" style="fill:#fbde44;opacity:0.4;"/>
   </g>
   <g id="patch_37">
    <path clip-path="url(#p3b498be377)" d="M 617.997645 315 
L 627.920359 315 
L 627.920359 302.057143 
L 617.997645 302.057143 
z
" style="fill:#fbde44;opacity:0.4;"/>
   </g>
   <g id="matplotlib.axis_3">
    <g id="xtick_6">
     <g id="line2d_16">
      <g>
       <use style="stroke:#000000;stroke-width:0.8;" x="479.079641" xlink:href="#mdcdb9292b7" y="315"/>
      </g>
     </g>
     <g id="text_18">
      <!-- 0 -->
      <g transform="translate(475.898391 329.598437)scale(0.1 -0.1)">
       <use xlink:href="#DejaVuSans-30"/>
      </g>
     </g>
    </g>
    <g id="xtick_7">
     <g id="line2d_17">
      <g>
       <use style="stroke:#000000;stroke-width:0.8;" x="538.615928" xlink:href="#mdcdb9292b7" y="315"/>
      </g>
     </g>
     <g id="text_19">
      <!-- 10 -->
      <g transform="translate(532.253428 329.598437)scale(0.1 -0.1)">
       <use xlink:href="#DejaVuSans-31"/>
       <use x="63.623047" xlink:href="#DejaVuSans-30"/>
      </g>
     </g>
    </g>
    <g id="xtick_8">
     <g id="line2d_18">
      <g>
       <use style="stroke:#000000;stroke-width:0.8;" x="598.152216" xlink:href="#mdcdb9292b7" y="315"/>
      </g>
     </g>
     <g id="text_20">
      <!-- 20 -->
      <g transform="translate(591.789716 329.598437)scale(0.1 -0.1)">
       <use xlink:href="#DejaVuSans-32"/>
       <use x="63.623047" xlink:href="#DejaVuSans-30"/>
      </g>
     </g>
    </g>
    <g id="xtick_9">
     <g id="line2d_19">
      <g>
       <use style="stroke:#000000;stroke-width:0.8;" x="657.688503" xlink:href="#mdcdb9292b7" y="315"/>
      </g>
     </g>
     <g id="text_21">
      <!-- 30 -->
      <g transform="translate(651.326003 329.598437)scale(0.1 -0.1)">
       <defs>
        <path d="M 2597 2516 
Q 3050 2419 3304 2112 
Q 3559 1806 3559 1356 
Q 3559 666 3084 287 
Q 2609 -91 1734 -91 
Q 1441 -91 1130 -33 
Q 819 25 488 141 
L 488 750 
Q 750 597 1062 519 
Q 1375 441 1716 441 
Q 2309 441 2620 675 
Q 2931 909 2931 1356 
Q 2931 1769 2642 2001 
Q 2353 2234 1838 2234 
L 1294 2234 
L 1294 2753 
L 1863 2753 
Q 2328 2753 2575 2939 
Q 2822 3125 2822 3475 
Q 2822 3834 2567 4026 
Q 2313 4219 1838 4219 
Q 1578 4219 1281 4162 
Q 984 4106 628 3988 
L 628 4550 
Q 988 4650 1302 4700 
Q 1616 4750 1894 4750 
Q 2613 4750 3031 4423 
Q 3450 4097 3450 3541 
Q 3450 3153 3228 2886 
Q 3006 2619 2597 2516 
z
" id="DejaVuSans-33" transform="scale(0.015625)"/>
       </defs>
       <use xlink:href="#DejaVuSans-33"/>
       <use x="63.623047" xlink:href="#DejaVuSans-30"/>
      </g>
     </g>
    </g>
    <g id="text_22">
     <!-- Sum score -->
     <g transform="translate(527.264844 343.276563)scale(0.1 -0.1)">
      <use xlink:href="#DejaVuSans-53"/>
      <use x="63.476562" xlink:href="#DejaVuSans-75"/>
      <use x="126.855469" xlink:href="#DejaVuSans-6d"/>
      <use x="224.267578" xlink:href="#DejaVuSans-20"/>
      <use x="256.054688" xlink:href="#DejaVuSans-73"/>
      <use x="308.154297" xlink:href="#DejaVuSans-63"/>
      <use x="363.134766" xlink:href="#DejaVuSans-6f"/>
      <use x="424.316406" xlink:href="#DejaVuSans-72"/>
      <use x="463.179688" xlink:href="#DejaVuSans-65"/>
     </g>
    </g>
   </g>
   <g id="matplotlib.axis_4">
    <g id="ytick_10">
     <g id="line2d_20">
      <g>
       <use style="stroke:#000000;stroke-width:0.8;" x="430.411765" xlink:href="#m9ad07a87ee" y="315"/>
      </g>
     </g>
     <g id="text_23">
      <!-- 0.00 -->
      <g transform="translate(401.14614 318.799219)scale(0.1 -0.1)">
       <use xlink:href="#DejaVuSans-30"/>
       <use x="63.623047" xlink:href="#DejaVuSans-2e"/>
       <use x="95.410156" xlink:href="#DejaVuSans-30"/>
       <use x="159.033203" xlink:href="#DejaVuSans-30"/>
      </g>
     </g>
    </g>
    <g id="ytick_11">
     <g id="line2d_21">
      <g>
       <use style="stroke:#000000;stroke-width:0.8;" x="430.411765" xlink:href="#m9ad07a87ee" y="266.248571"/>
      </g>
     </g>
     <g id="text_24">
      <!-- 0.02 -->
      <g transform="translate(401.14614 270.04779)scale(0.1 -0.1)">
       <use xlink:href="#DejaVuSans-30"/>
       <use x="63.623047" xlink:href="#DejaVuSans-2e"/>
       <use x="95.410156" xlink:href="#DejaVuSans-30"/>
       <use x="159.033203" xlink:href="#DejaVuSans-32"/>
      </g>
     </g>
    </g>
    <g id="ytick_12">
     <g id="line2d_22">
      <g>
       <use style="stroke:#000000;stroke-width:0.8;" x="430.411765" xlink:href="#m9ad07a87ee" y="217.497143"/>
      </g>
     </g>
     <g id="text_25">
      <!-- 0.04 -->
      <g transform="translate(401.14614 221.296362)scale(0.1 -0.1)">
       <use xlink:href="#DejaVuSans-30"/>
       <use x="63.623047" xlink:href="#DejaVuSans-2e"/>
       <use x="95.410156" xlink:href="#DejaVuSans-30"/>
       <use x="159.033203" xlink:href="#DejaVuSans-34"/>
      </g>
     </g>
    </g>
    <g id="ytick_13">
     <g id="line2d_23">
      <g>
       <use style="stroke:#000000;stroke-width:0.8;" x="430.411765" xlink:href="#m9ad07a87ee" y="168.745714"/>
      </g>
     </g>
     <g id="text_26">
      <!-- 0.06 -->
      <g transform="translate(401.14614 172.544933)scale(0.1 -0.1)">
       <use xlink:href="#DejaVuSans-30"/>
       <use x="63.623047" xlink:href="#DejaVuSans-2e"/>
       <use x="95.410156" xlink:href="#DejaVuSans-30"/>
       <use x="159.033203" xlink:href="#DejaVuSans-36"/>
      </g>
     </g>
    </g>
    <g id="ytick_14">
     <g id="line2d_24">
      <g>
       <use style="stroke:#000000;stroke-width:0.8;" x="430.411765" xlink:href="#m9ad07a87ee" y="119.994286"/>
      </g>
     </g>
     <g id="text_27">
      <!-- 0.08 -->
      <g transform="translate(401.14614 123.793504)scale(0.1 -0.1)">
       <use xlink:href="#DejaVuSans-30"/>
       <use x="63.623047" xlink:href="#DejaVuSans-2e"/>
       <use x="95.410156" xlink:href="#DejaVuSans-30"/>
       <use x="159.033203" xlink:href="#DejaVuSans-38"/>
      </g>
     </g>
    </g>
    <g id="ytick_15">
     <g id="line2d_25">
      <g>
       <use style="stroke:#000000;stroke-width:0.8;" x="430.411765" xlink:href="#m9ad07a87ee" y="71.242857"/>
      </g>
     </g>
     <g id="text_28">
      <!-- 0.10 -->
      <g transform="translate(401.14614 75.042076)scale(0.1 -0.1)">
       <use xlink:href="#DejaVuSans-30"/>
       <use x="63.623047" xlink:href="#DejaVuSans-2e"/>
       <use x="95.410156" xlink:href="#DejaVuSans-31"/>
       <use x="159.033203" xlink:href="#DejaVuSans-30"/>
      </g>
     </g>
    </g>
   </g>
   <g id="line2d_26">
    <path clip-path="url(#p3b498be377)" d="M 441.601604 314.533935 
L 445.125963 313.988637 
L 446.888143 313.518191 
L 448.650322 312.857941 
L 450.412502 311.95193 
L 452.174681 310.734202 
L 453.93686 309.129743 
L 455.69904 307.056454 
L 457.461219 304.42825 
L 459.223399 301.159291 
L 460.985578 297.169199 
L 462.747758 292.388966 
L 464.509937 286.767112 
L 466.272117 280.275549 
L 468.034296 272.914566 
L 469.796476 264.716378 
L 471.558655 255.746781 
L 475.083014 235.919214 
L 485.656091 172.973348 
L 487.41827 163.848105 
L 489.18045 155.523852 
L 490.942629 148.103591 
L 492.704809 141.661004 
L 494.466988 136.239938 
L 496.229168 131.855376 
L 497.991347 128.495783 
L 499.753526 126.126633 
L 501.515706 124.694892 
L 503.277885 124.134124 
L 505.040065 124.369834 
L 506.802244 125.32462 
L 508.564424 126.922679 
L 510.326603 129.093265 
L 512.088783 131.772819 
L 513.850962 134.90562 
L 515.613142 138.443017 
L 517.375321 142.341493 
L 520.89968 151.056843 
L 524.424039 160.701934 
L 534.997116 190.732559 
L 538.521475 199.58479 
L 542.045834 207.4033 
L 545.570192 214.231166 
L 549.094551 220.302857 
L 559.667628 237.542765 
L 563.191987 243.98987 
L 566.716346 250.999951 
L 572.002884 262.264631 
L 577.289423 273.511925 
L 580.813782 280.389505 
L 582.575961 283.524237 
L 584.338141 286.422111 
L 586.10032 289.070387 
L 587.862499 291.467092 
L 589.624679 293.620359 
L 591.386858 295.546886 
L 593.149038 297.269675 
L 594.911217 298.815263 
L 598.435576 301.481175 
L 601.959935 303.722742 
L 605.484294 305.631001 
L 609.008653 307.208307 
L 612.533012 308.416387 
L 616.057371 309.242289 
L 619.58173 309.743301 
L 633.679165 311.182843 
L 638.965704 312.187841 
L 646.014422 313.543947 
L 651.30096 314.268612 
L 656.587498 314.671797 
L 661.874037 314.78388 
L 665.398396 314.672656 
L 665.398396 314.672656 
" style="fill:none;stroke:#fbde44;stroke-linecap:square;stroke-width:1.5;"/>
   </g>
   <g id="patch_38">
    <path d="M 430.411765 315 
L 430.411765 43.2 
" style="fill:none;stroke:#000000;stroke-linecap:square;stroke-linejoin:miter;stroke-width:0.8;"/>
   </g>
   <g id="patch_39">
    <path d="M 676.588235 315 
L 676.588235 43.2 
" style="fill:none;stroke:#000000;stroke-linecap:square;stroke-linejoin:miter;stroke-width:0.8;"/>
   </g>
   <g id="patch_40">
    <path d="M 430.411765 315 
L 676.588235 315 
" style="fill:none;stroke:#000000;stroke-linecap:square;stroke-linejoin:miter;stroke-width:0.8;"/>
   </g>
   <g id="patch_41">
    <path d="M 430.411765 43.2 
L 676.588235 43.2 
" style="fill:none;stroke:#000000;stroke-linecap:square;stroke-linejoin:miter;stroke-width:0.8;"/>
   </g>
   <g id="text_29">
    <!-- CAPS -->
    <g transform="translate(537.779063 37.2)scale(0.12 -0.12)">
     <defs>
      <path d="M 4122 4306 
L 4122 3641 
Q 3803 3938 3442 4084 
Q 3081 4231 2675 4231 
Q 1875 4231 1450 3742 
Q 1025 3253 1025 2328 
Q 1025 1406 1450 917 
Q 1875 428 2675 428 
Q 3081 428 3442 575 
Q 3803 722 4122 1019 
L 4122 359 
Q 3791 134 3420 21 
Q 3050 -91 2638 -91 
Q 1578 -91 968 557 
Q 359 1206 359 2328 
Q 359 3453 968 4101 
Q 1578 4750 2638 4750 
Q 3056 4750 3426 4639 
Q 3797 4528 4122 4306 
z
" id="DejaVuSans-43" transform="scale(0.015625)"/>
      <path d="M 2188 4044 
L 1331 1722 
L 3047 1722 
L 2188 4044 
z
M 1831 4666 
L 2547 4666 
L 4325 0 
L 3669 0 
L 3244 1197 
L 1141 1197 
L 716 0 
L 50 0 
L 1831 4666 
z
" id="DejaVuSans-41" transform="scale(0.015625)"/>
     </defs>
     <use xlink:href="#DejaVuSans-43"/>
     <use x="69.824219" xlink:href="#DejaVuSans-41"/>
     <use x="138.232422" xlink:href="#DejaVuSans-50"/>
     <use x="198.535156" xlink:href="#DejaVuSans-53"/>
    </g>
   </g>
  </g>
  <g id="axes_3">
   <g id="patch_42">
    <path d="M 725.823529 315 
L 972 315 
L 972 43.2 
L 725.823529 43.2 
z
" style="fill:#ffffff;"/>
   </g>
   <g id="PathCollection_1">
    <defs>
     <path d="M 0 3 
C 0.795609 3 1.55874 2.683901 2.12132 2.12132 
C 2.683901 1.55874 3 0.795609 3 0 
C 3 -0.795609 2.683901 -1.55874 2.12132 -2.12132 
C 1.55874 -2.683901 0.795609 -3 0 -3 
C -0.795609 -3 -1.55874 -2.683901 -2.12132 -2.12132 
C -2.683901 -1.55874 -3 -0.795609 -3 0 
C -3 0.795609 -2.683901 1.55874 -2.12132 2.12132 
C -1.55874 2.683901 -0.795609 3 0 3 
z
" id="mb1334d7565" style="stroke:#28334a;stroke-opacity:0.8;"/>
    </defs>
    <g clip-path="url(#p1ba2a829e0)">
     <use style="fill:#28334a;fill-opacity:0.8;stroke:#28334a;stroke-opacity:0.8;" x="725.823529" xlink:href="#mb1334d7565" y="302.645455"/>
     <use style="fill:#28334a;fill-opacity:0.8;stroke:#28334a;stroke-opacity:0.8;" x="834.141176" xlink:href="#mb1334d7565" y="186.36738"/>
     <use style="fill:#28334a;fill-opacity:0.8;stroke:#28334a;stroke-opacity:0.8;" x="775.058824" xlink:href="#mb1334d7565" y="229.971658"/>
     <use style="fill:#28334a;fill-opacity:0.8;stroke:#28334a;stroke-opacity:0.8;" x="814.447059" xlink:href="#mb1334d7565" y="157.297861"/>
     <use style="fill:#28334a;fill-opacity:0.8;stroke:#28334a;stroke-opacity:0.8;" x="745.517647" xlink:href="#mb1334d7565" y="215.436898"/>
     <use style="fill:#28334a;fill-opacity:0.8;stroke:#28334a;stroke-opacity:0.8;" x="725.823529" xlink:href="#mb1334d7565" y="200.902139"/>
     <use style="fill:#28334a;fill-opacity:0.8;stroke:#28334a;stroke-opacity:0.8;" x="725.823529" xlink:href="#mb1334d7565" y="229.971658"/>
     <use style="fill:#28334a;fill-opacity:0.8;stroke:#28334a;stroke-opacity:0.8;" x="735.670588" xlink:href="#mb1334d7565" y="215.436898"/>
     <use style="fill:#28334a;fill-opacity:0.8;stroke:#28334a;stroke-opacity:0.8;" x="794.752941" xlink:href="#mb1334d7565" y="200.902139"/>
     <use style="fill:#28334a;fill-opacity:0.8;stroke:#28334a;stroke-opacity:0.8;" x="765.211765" xlink:href="#mb1334d7565" y="215.436898"/>
     <use style="fill:#28334a;fill-opacity:0.8;stroke:#28334a;stroke-opacity:0.8;" x="834.141176" xlink:href="#mb1334d7565" y="200.902139"/>
     <use style="fill:#28334a;fill-opacity:0.8;stroke:#28334a;stroke-opacity:0.8;" x="834.141176" xlink:href="#mb1334d7565" y="171.83262"/>
     <use style="fill:#28334a;fill-opacity:0.8;stroke:#28334a;stroke-opacity:0.8;" x="834.141176" xlink:href="#mb1334d7565" y="171.83262"/>
     <use style="fill:#28334a;fill-opacity:0.8;stroke:#28334a;stroke-opacity:0.8;" x="814.447059" xlink:href="#mb1334d7565" y="186.36738"/>
     <use style="fill:#28334a;fill-opacity:0.8;stroke:#28334a;stroke-opacity:0.8;" x="814.447059" xlink:href="#mb1334d7565" y="215.436898"/>
     <use style="fill:#28334a;fill-opacity:0.8;stroke:#28334a;stroke-opacity:0.8;" x="745.517647" xlink:href="#mb1334d7565" y="244.506417"/>
     <use style="fill:#28334a;fill-opacity:0.8;stroke:#28334a;stroke-opacity:0.8;" x="824.294118" xlink:href="#mb1334d7565" y="229.971658"/>
     <use style="fill:#28334a;fill-opacity:0.8;stroke:#28334a;stroke-opacity:0.8;" x="843.988235" xlink:href="#mb1334d7565" y="157.297861"/>
     <use style="fill:#28334a;fill-opacity:0.8;stroke:#28334a;stroke-opacity:0.8;" x="775.058824" xlink:href="#mb1334d7565" y="259.041176"/>
     <use style="fill:#28334a;fill-opacity:0.8;stroke:#28334a;stroke-opacity:0.8;" x="745.517647" xlink:href="#mb1334d7565" y="200.902139"/>
     <use style="fill:#28334a;fill-opacity:0.8;stroke:#28334a;stroke-opacity:0.8;" x="794.752941" xlink:href="#mb1334d7565" y="128.228342"/>
     <use style="fill:#28334a;fill-opacity:0.8;stroke:#28334a;stroke-opacity:0.8;" x="765.211765" xlink:href="#mb1334d7565" y="215.436898"/>
     <use style="fill:#28334a;fill-opacity:0.8;stroke:#28334a;stroke-opacity:0.8;" x="784.905882" xlink:href="#mb1334d7565" y="157.297861"/>
     <use style="fill:#28334a;fill-opacity:0.8;stroke:#28334a;stroke-opacity:0.8;" x="755.364706" xlink:href="#mb1334d7565" y="215.436898"/>
     <use style="fill:#28334a;fill-opacity:0.8;stroke:#28334a;stroke-opacity:0.8;" x="775.058824" xlink:href="#mb1334d7565" y="215.436898"/>
     <use style="fill:#28334a;fill-opacity:0.8;stroke:#28334a;stroke-opacity:0.8;" x="853.835294" xlink:href="#mb1334d7565" y="113.693583"/>
     <use style="fill:#28334a;fill-opacity:0.8;stroke:#28334a;stroke-opacity:0.8;" x="765.211765" xlink:href="#mb1334d7565" y="171.83262"/>
     <use style="fill:#28334a;fill-opacity:0.8;stroke:#28334a;stroke-opacity:0.8;" x="814.447059" xlink:href="#mb1334d7565" y="128.228342"/>
     <use style="fill:#28334a;fill-opacity:0.8;stroke:#28334a;stroke-opacity:0.8;" x="804.6" xlink:href="#mb1334d7565" y="229.971658"/>
     <use style="fill:#28334a;fill-opacity:0.8;stroke:#28334a;stroke-opacity:0.8;" x="794.752941" xlink:href="#mb1334d7565" y="229.971658"/>
     <use style="fill:#28334a;fill-opacity:0.8;stroke:#28334a;stroke-opacity:0.8;" x="765.211765" xlink:href="#mb1334d7565" y="171.83262"/>
     <use style="fill:#28334a;fill-opacity:0.8;stroke:#28334a;stroke-opacity:0.8;" x="755.364706" xlink:href="#mb1334d7565" y="229.971658"/>
     <use style="fill:#28334a;fill-opacity:0.8;stroke:#28334a;stroke-opacity:0.8;" x="893.223529" xlink:href="#mb1334d7565" y="128.228342"/>
     <use style="fill:#28334a;fill-opacity:0.8;stroke:#28334a;stroke-opacity:0.8;" x="794.752941" xlink:href="#mb1334d7565" y="200.902139"/>
     <use style="fill:#28334a;fill-opacity:0.8;stroke:#28334a;stroke-opacity:0.8;" x="883.376471" xlink:href="#mb1334d7565" y="171.83262"/>
     <use style="fill:#28334a;fill-opacity:0.8;stroke:#28334a;stroke-opacity:0.8;" x="775.058824" xlink:href="#mb1334d7565" y="244.506417"/>
     <use style="fill:#28334a;fill-opacity:0.8;stroke:#28334a;stroke-opacity:0.8;" x="755.364706" xlink:href="#mb1334d7565" y="186.36738"/>
     <use style="fill:#28334a;fill-opacity:0.8;stroke:#28334a;stroke-opacity:0.8;" x="765.211765" xlink:href="#mb1334d7565" y="200.902139"/>
     <use style="fill:#28334a;fill-opacity:0.8;stroke:#28334a;stroke-opacity:0.8;" x="745.517647" xlink:href="#mb1334d7565" y="259.041176"/>
     <use style="fill:#28334a;fill-opacity:0.8;stroke:#28334a;stroke-opacity:0.8;" x="863.682353" xlink:href="#mb1334d7565" y="215.436898"/>
     <use style="fill:#28334a;fill-opacity:0.8;stroke:#28334a;stroke-opacity:0.8;" x="775.058824" xlink:href="#mb1334d7565" y="157.297861"/>
     <use style="fill:#28334a;fill-opacity:0.8;stroke:#28334a;stroke-opacity:0.8;" x="735.670588" xlink:href="#mb1334d7565" y="244.506417"/>
     <use style="fill:#28334a;fill-opacity:0.8;stroke:#28334a;stroke-opacity:0.8;" x="972" xlink:href="#mb1334d7565" y="55.554545"/>
     <use style="fill:#28334a;fill-opacity:0.8;stroke:#28334a;stroke-opacity:0.8;" x="735.670588" xlink:href="#mb1334d7565" y="244.506417"/>
     <use style="fill:#28334a;fill-opacity:0.8;stroke:#28334a;stroke-opacity:0.8;" x="735.670588" xlink:href="#mb1334d7565" y="273.575936"/>
     <use style="fill:#28334a;fill-opacity:0.8;stroke:#28334a;stroke-opacity:0.8;" x="755.364706" xlink:href="#mb1334d7565" y="259.041176"/>
     <use style="fill:#28334a;fill-opacity:0.8;stroke:#28334a;stroke-opacity:0.8;" x="863.682353" xlink:href="#mb1334d7565" y="171.83262"/>
     <use style="fill:#28334a;fill-opacity:0.8;stroke:#28334a;stroke-opacity:0.8;" x="755.364706" xlink:href="#mb1334d7565" y="215.436898"/>
     <use style="fill:#28334a;fill-opacity:0.8;stroke:#28334a;stroke-opacity:0.8;" x="824.294118" xlink:href="#mb1334d7565" y="186.36738"/>
     <use style="fill:#28334a;fill-opacity:0.8;stroke:#28334a;stroke-opacity:0.8;" x="893.223529" xlink:href="#mb1334d7565" y="157.297861"/>
     <use style="fill:#28334a;fill-opacity:0.8;stroke:#28334a;stroke-opacity:0.8;" x="834.141176" xlink:href="#mb1334d7565" y="128.228342"/>
     <use style="fill:#28334a;fill-opacity:0.8;stroke:#28334a;stroke-opacity:0.8;" x="784.905882" xlink:href="#mb1334d7565" y="229.971658"/>
     <use style="fill:#28334a;fill-opacity:0.8;stroke:#28334a;stroke-opacity:0.8;" x="794.752941" xlink:href="#mb1334d7565" y="229.971658"/>
     <use style="fill:#28334a;fill-opacity:0.8;stroke:#28334a;stroke-opacity:0.8;" x="784.905882" xlink:href="#mb1334d7565" y="215.436898"/>
     <use style="fill:#28334a;fill-opacity:0.8;stroke:#28334a;stroke-opacity:0.8;" x="784.905882" xlink:href="#mb1334d7565" y="215.436898"/>
     <use style="fill:#28334a;fill-opacity:0.8;stroke:#28334a;stroke-opacity:0.8;" x="794.752941" xlink:href="#mb1334d7565" y="142.763102"/>
     <use style="fill:#28334a;fill-opacity:0.8;stroke:#28334a;stroke-opacity:0.8;" x="843.988235" xlink:href="#mb1334d7565" y="186.36738"/>
     <use style="fill:#28334a;fill-opacity:0.8;stroke:#28334a;stroke-opacity:0.8;" x="765.211765" xlink:href="#mb1334d7565" y="186.36738"/>
     <use style="fill:#28334a;fill-opacity:0.8;stroke:#28334a;stroke-opacity:0.8;" x="755.364706" xlink:href="#mb1334d7565" y="244.506417"/>
     <use style="fill:#28334a;fill-opacity:0.8;stroke:#28334a;stroke-opacity:0.8;" x="745.517647" xlink:href="#mb1334d7565" y="229.971658"/>
     <use style="fill:#28334a;fill-opacity:0.8;stroke:#28334a;stroke-opacity:0.8;" x="784.905882" xlink:href="#mb1334d7565" y="244.506417"/>
     <use style="fill:#28334a;fill-opacity:0.8;stroke:#28334a;stroke-opacity:0.8;" x="873.529412" xlink:href="#mb1334d7565" y="128.228342"/>
     <use style="fill:#28334a;fill-opacity:0.8;stroke:#28334a;stroke-opacity:0.8;" x="755.364706" xlink:href="#mb1334d7565" y="244.506417"/>
     <use style="fill:#28334a;fill-opacity:0.8;stroke:#28334a;stroke-opacity:0.8;" x="853.835294" xlink:href="#mb1334d7565" y="215.436898"/>
     <use style="fill:#28334a;fill-opacity:0.8;stroke:#28334a;stroke-opacity:0.8;" x="755.364706" xlink:href="#mb1334d7565" y="200.902139"/>
     <use style="fill:#28334a;fill-opacity:0.8;stroke:#28334a;stroke-opacity:0.8;" x="755.364706" xlink:href="#mb1334d7565" y="259.041176"/>
     <use style="fill:#28334a;fill-opacity:0.8;stroke:#28334a;stroke-opacity:0.8;" x="775.058824" xlink:href="#mb1334d7565" y="215.436898"/>
     <use style="fill:#28334a;fill-opacity:0.8;stroke:#28334a;stroke-opacity:0.8;" x="755.364706" xlink:href="#mb1334d7565" y="302.645455"/>
     <use style="fill:#28334a;fill-opacity:0.8;stroke:#28334a;stroke-opacity:0.8;" x="765.211765" xlink:href="#mb1334d7565" y="229.971658"/>
     <use style="fill:#28334a;fill-opacity:0.8;stroke:#28334a;stroke-opacity:0.8;" x="814.447059" xlink:href="#mb1334d7565" y="128.228342"/>
     <use style="fill:#28334a;fill-opacity:0.8;stroke:#28334a;stroke-opacity:0.8;" x="725.823529" xlink:href="#mb1334d7565" y="288.110695"/>
     <use style="fill:#28334a;fill-opacity:0.8;stroke:#28334a;stroke-opacity:0.8;" x="824.294118" xlink:href="#mb1334d7565" y="215.436898"/>
     <use style="fill:#28334a;fill-opacity:0.8;stroke:#28334a;stroke-opacity:0.8;" x="745.517647" xlink:href="#mb1334d7565" y="259.041176"/>
     <use style="fill:#28334a;fill-opacity:0.8;stroke:#28334a;stroke-opacity:0.8;" x="735.670588" xlink:href="#mb1334d7565" y="215.436898"/>
     <use style="fill:#28334a;fill-opacity:0.8;stroke:#28334a;stroke-opacity:0.8;" x="725.823529" xlink:href="#mb1334d7565" y="273.575936"/>
     <use style="fill:#28334a;fill-opacity:0.8;stroke:#28334a;stroke-opacity:0.8;" x="794.752941" xlink:href="#mb1334d7565" y="215.436898"/>
     <use style="fill:#28334a;fill-opacity:0.8;stroke:#28334a;stroke-opacity:0.8;" x="804.6" xlink:href="#mb1334d7565" y="244.506417"/>
     <use style="fill:#28334a;fill-opacity:0.8;stroke:#28334a;stroke-opacity:0.8;" x="745.517647" xlink:href="#mb1334d7565" y="273.575936"/>
     <use style="fill:#28334a;fill-opacity:0.8;stroke:#28334a;stroke-opacity:0.8;" x="725.823529" xlink:href="#mb1334d7565" y="244.506417"/>
     <use style="fill:#28334a;fill-opacity:0.8;stroke:#28334a;stroke-opacity:0.8;" x="745.517647" xlink:href="#mb1334d7565" y="244.506417"/>
     <use style="fill:#28334a;fill-opacity:0.8;stroke:#28334a;stroke-opacity:0.8;" x="863.682353" xlink:href="#mb1334d7565" y="171.83262"/>
     <use style="fill:#28334a;fill-opacity:0.8;stroke:#28334a;stroke-opacity:0.8;" x="804.6" xlink:href="#mb1334d7565" y="157.297861"/>
     <use style="fill:#28334a;fill-opacity:0.8;stroke:#28334a;stroke-opacity:0.8;" x="804.6" xlink:href="#mb1334d7565" y="171.83262"/>
     <use style="fill:#28334a;fill-opacity:0.8;stroke:#28334a;stroke-opacity:0.8;" x="843.988235" xlink:href="#mb1334d7565" y="128.228342"/>
     <use style="fill:#28334a;fill-opacity:0.8;stroke:#28334a;stroke-opacity:0.8;" x="784.905882" xlink:href="#mb1334d7565" y="200.902139"/>
     <use style="fill:#28334a;fill-opacity:0.8;stroke:#28334a;stroke-opacity:0.8;" x="824.294118" xlink:href="#mb1334d7565" y="171.83262"/>
     <use style="fill:#28334a;fill-opacity:0.8;stroke:#28334a;stroke-opacity:0.8;" x="922.764706" xlink:href="#mb1334d7565" y="113.693583"/>
     <use style="fill:#28334a;fill-opacity:0.8;stroke:#28334a;stroke-opacity:0.8;" x="804.6" xlink:href="#mb1334d7565" y="186.36738"/>
     <use style="fill:#28334a;fill-opacity:0.8;stroke:#28334a;stroke-opacity:0.8;" x="873.529412" xlink:href="#mb1334d7565" y="171.83262"/>
     <use style="fill:#28334a;fill-opacity:0.8;stroke:#28334a;stroke-opacity:0.8;" x="794.752941" xlink:href="#mb1334d7565" y="200.902139"/>
     <use style="fill:#28334a;fill-opacity:0.8;stroke:#28334a;stroke-opacity:0.8;" x="725.823529" xlink:href="#mb1334d7565" y="200.902139"/>
     <use style="fill:#28334a;fill-opacity:0.8;stroke:#28334a;stroke-opacity:0.8;" x="745.517647" xlink:href="#mb1334d7565" y="215.436898"/>
     <use style="fill:#28334a;fill-opacity:0.8;stroke:#28334a;stroke-opacity:0.8;" x="843.988235" xlink:href="#mb1334d7565" y="157.297861"/>
     <use style="fill:#28334a;fill-opacity:0.8;stroke:#28334a;stroke-opacity:0.8;" x="804.6" xlink:href="#mb1334d7565" y="186.36738"/>
     <use style="fill:#28334a;fill-opacity:0.8;stroke:#28334a;stroke-opacity:0.8;" x="863.682353" xlink:href="#mb1334d7565" y="113.693583"/>
     <use style="fill:#28334a;fill-opacity:0.8;stroke:#28334a;stroke-opacity:0.8;" x="765.211765" xlink:href="#mb1334d7565" y="215.436898"/>
     <use style="fill:#28334a;fill-opacity:0.8;stroke:#28334a;stroke-opacity:0.8;" x="735.670588" xlink:href="#mb1334d7565" y="229.971658"/>
     <use style="fill:#28334a;fill-opacity:0.8;stroke:#28334a;stroke-opacity:0.8;" x="784.905882" xlink:href="#mb1334d7565" y="200.902139"/>
     <use style="fill:#28334a;fill-opacity:0.8;stroke:#28334a;stroke-opacity:0.8;" x="863.682353" xlink:href="#mb1334d7565" y="200.902139"/>
     <use style="fill:#28334a;fill-opacity:0.8;stroke:#28334a;stroke-opacity:0.8;" x="804.6" xlink:href="#mb1334d7565" y="186.36738"/>
     <use style="fill:#28334a;fill-opacity:0.8;stroke:#28334a;stroke-opacity:0.8;" x="922.764706" xlink:href="#mb1334d7565" y="142.763102"/>
     <use style="fill:#28334a;fill-opacity:0.8;stroke:#28334a;stroke-opacity:0.8;" x="775.058824" xlink:href="#mb1334d7565" y="259.041176"/>
     <use style="fill:#28334a;fill-opacity:0.8;stroke:#28334a;stroke-opacity:0.8;" x="843.988235" xlink:href="#mb1334d7565" y="157.297861"/>
     <use style="fill:#28334a;fill-opacity:0.8;stroke:#28334a;stroke-opacity:0.8;" x="765.211765" xlink:href="#mb1334d7565" y="142.763102"/>
     <use style="fill:#28334a;fill-opacity:0.8;stroke:#28334a;stroke-opacity:0.8;" x="735.670588" xlink:href="#mb1334d7565" y="244.506417"/>
     <use style="fill:#28334a;fill-opacity:0.8;stroke:#28334a;stroke-opacity:0.8;" x="784.905882" xlink:href="#mb1334d7565" y="229.971658"/>
     <use style="fill:#28334a;fill-opacity:0.8;stroke:#28334a;stroke-opacity:0.8;" x="784.905882" xlink:href="#mb1334d7565" y="229.971658"/>
     <use style="fill:#28334a;fill-opacity:0.8;stroke:#28334a;stroke-opacity:0.8;" x="765.211765" xlink:href="#mb1334d7565" y="259.041176"/>
     <use style="fill:#28334a;fill-opacity:0.8;stroke:#28334a;stroke-opacity:0.8;" x="775.058824" xlink:href="#mb1334d7565" y="186.36738"/>
     <use style="fill:#28334a;fill-opacity:0.8;stroke:#28334a;stroke-opacity:0.8;" x="755.364706" xlink:href="#mb1334d7565" y="157.297861"/>
     <use style="fill:#28334a;fill-opacity:0.8;stroke:#28334a;stroke-opacity:0.8;" x="883.376471" xlink:href="#mb1334d7565" y="157.297861"/>
     <use style="fill:#28334a;fill-opacity:0.8;stroke:#28334a;stroke-opacity:0.8;" x="863.682353" xlink:href="#mb1334d7565" y="157.297861"/>
     <use style="fill:#28334a;fill-opacity:0.8;stroke:#28334a;stroke-opacity:0.8;" x="804.6" xlink:href="#mb1334d7565" y="200.902139"/>
    </g>
   </g>
   <g id="PolyCollection_1">
    <path clip-path="url(#p1ba2a829e0)" d="M 725.823529 233.910242 
L 725.823529 253.320705 
L 728.31016 251.566069 
L 730.796791 249.843684 
L 733.283422 248.124237 
L 735.770053 246.404945 
L 738.256684 244.653022 
L 740.743316 242.975215 
L 743.229947 241.190383 
L 745.716578 239.43357 
L 748.203209 237.642657 
L 750.68984 235.977155 
L 753.176471 234.190725 
L 755.663102 232.581921 
L 758.149733 230.906981 
L 760.636364 229.146986 
L 763.122995 227.430796 
L 765.609626 225.771441 
L 768.096257 224.052955 
L 770.582888 222.360993 
L 773.069519 220.757837 
L 775.55615 219.170569 
L 778.042781 217.508209 
L 780.529412 215.846542 
L 783.016043 214.238811 
L 785.502674 212.751666 
L 787.989305 211.199653 
L 790.475936 209.500302 
L 792.962567 207.786487 
L 795.449198 206.093714 
L 797.935829 204.388534 
L 800.42246 202.7217 
L 802.909091 201.126449 
L 805.395722 199.537427 
L 807.882353 197.941126 
L 810.368984 196.568837 
L 812.855615 195.102415 
L 815.342246 193.696074 
L 817.828877 192.288353 
L 820.315508 190.707405 
L 822.802139 189.112722 
L 825.28877 187.628653 
L 827.775401 186.224506 
L 830.262032 184.822325 
L 832.748663 183.329049 
L 835.235294 181.921337 
L 837.721925 180.438701 
L 840.208556 179.025232 
L 842.695187 177.71299 
L 845.181818 176.294309 
L 847.668449 174.906649 
L 850.15508 173.5685 
L 852.641711 172.202025 
L 855.128342 170.845915 
L 857.614973 169.463458 
L 860.101604 168.120879 
L 862.588235 166.652682 
L 865.074866 165.382141 
L 867.561497 164.053342 
L 870.048128 162.748378 
L 872.534759 161.367053 
L 875.02139 159.966333 
L 877.508021 158.587168 
L 879.994652 157.225898 
L 882.481283 155.866879 
L 884.967914 154.50786 
L 887.454545 153.297489 
L 889.941176 152.099214 
L 892.427807 150.866262 
L 894.914439 149.601495 
L 897.40107 148.382316 
L 899.887701 147.151459 
L 902.374332 145.731253 
L 904.860963 144.311046 
L 907.347594 142.975789 
L 909.834225 141.714969 
L 912.320856 140.454149 
L 914.807487 139.193329 
L 917.294118 137.932509 
L 919.780749 136.671689 
L 922.26738 135.410869 
L 924.754011 134.150048 
L 927.240642 132.853966 
L 929.727273 131.555038 
L 932.213904 130.25611 
L 934.700535 128.957182 
L 937.187166 127.658253 
L 939.673797 126.359325 
L 942.160428 125.060397 
L 944.647059 123.761468 
L 947.13369 122.46254 
L 949.620321 121.163612 
L 952.106952 119.864684 
L 954.593583 118.565755 
L 957.080214 117.291461 
L 959.566845 116.027271 
L 962.053476 114.761764 
L 964.540107 113.496258 
L 967.026738 112.230751 
L 969.513369 110.965244 
L 972 109.699737 
L 972 68.793384 
L 972 68.793384 
L 969.513369 70.598868 
L 967.026738 72.408422 
L 964.540107 74.31683 
L 962.053476 76.258801 
L 959.566845 78.200772 
L 957.080214 80.112593 
L 954.593583 81.948173 
L 952.106952 83.783753 
L 949.620321 85.619333 
L 947.13369 87.454913 
L 944.647059 89.290493 
L 942.160428 91.126073 
L 939.673797 92.931361 
L 937.187166 94.711629 
L 934.700535 96.491897 
L 932.213904 98.272165 
L 929.727273 100.052433 
L 927.240642 101.832701 
L 924.754011 103.605717 
L 922.26738 105.389838 
L 919.780749 107.165978 
L 917.294118 108.942117 
L 914.807487 110.689775 
L 912.320856 112.43697 
L 909.834225 114.188393 
L 907.347594 115.963503 
L 904.860963 117.83192 
L 902.374332 119.610026 
L 899.887701 121.389881 
L 897.40107 123.205646 
L 894.914439 124.94807 
L 892.427807 126.722514 
L 889.941176 128.500067 
L 887.454545 130.278518 
L 884.967914 132.091437 
L 882.481283 133.921572 
L 879.994652 135.654321 
L 877.508021 137.461641 
L 875.02139 139.267178 
L 872.534759 141.089681 
L 870.048128 143.120162 
L 867.561497 145.126846 
L 865.074866 146.839956 
L 862.588235 148.484038 
L 860.101604 150.120543 
L 857.614973 151.96014 
L 855.128342 153.724165 
L 852.641711 155.531938 
L 850.15508 157.395219 
L 847.668449 159.175847 
L 845.181818 160.987079 
L 842.695187 162.848343 
L 840.208556 164.565531 
L 837.721925 166.27649 
L 835.235294 168.004287 
L 832.748663 169.701639 
L 830.262032 171.238901 
L 827.775401 172.902461 
L 825.28877 174.493803 
L 822.802139 176.222107 
L 820.315508 177.982948 
L 817.828877 179.72491 
L 815.342246 181.405758 
L 812.855615 182.89788 
L 810.368984 184.51976 
L 807.882353 186.192668 
L 805.395722 187.824605 
L 802.909091 189.349142 
L 800.42246 190.83573 
L 797.935829 192.587774 
L 795.449198 194.03145 
L 792.962567 195.604686 
L 790.475936 197.120766 
L 787.989305 198.691263 
L 785.502674 200.245694 
L 783.016043 201.788617 
L 780.529412 203.254068 
L 778.042781 204.763959 
L 775.55615 206.164372 
L 773.069519 207.555264 
L 770.582888 208.990218 
L 768.096257 210.455153 
L 765.609626 211.894715 
L 763.122995 213.378073 
L 760.636364 214.764523 
L 758.149733 216.037027 
L 755.663102 217.371633 
L 753.176471 218.885374 
L 750.68984 220.260177 
L 748.203209 221.576114 
L 745.716578 223.010048 
L 743.229947 224.324903 
L 740.743316 225.713362 
L 738.256684 227.105726 
L 735.770053 228.403406 
L 733.283422 229.790151 
L 730.796791 231.177298 
L 728.31016 232.567842 
L 725.823529 233.910242 
z
" style="fill:#28334a;fill-opacity:0.15;"/>
   </g>
   <g id="matplotlib.axis_5">
    <g id="xtick_10">
     <g id="line2d_27">
      <g>
       <use style="stroke:#000000;stroke-width:0.8;" x="725.823529" xlink:href="#mdcdb9292b7" y="315"/>
      </g>
     </g>
     <g id="text_30">
      <!-- 0 -->
      <g transform="translate(722.642279 329.598437)scale(0.1 -0.1)">
       <use xlink:href="#DejaVuSans-30"/>
      </g>
     </g>
    </g>
    <g id="xtick_11">
     <g id="line2d_28">
      <g>
       <use style="stroke:#000000;stroke-width:0.8;" x="775.058824" xlink:href="#mdcdb9292b7" y="315"/>
      </g>
     </g>
     <g id="text_31">
      <!-- 5 -->
      <g transform="translate(771.877574 329.598437)scale(0.1 -0.1)">
       <use xlink:href="#DejaVuSans-35"/>
      </g>
     </g>
    </g>
    <g id="xtick_12">
     <g id="line2d_29">
      <g>
       <use style="stroke:#000000;stroke-width:0.8;" x="824.294118" xlink:href="#mdcdb9292b7" y="315"/>
      </g>
     </g>
     <g id="text_32">
      <!-- 10 -->
      <g transform="translate(817.931618 329.598437)scale(0.1 -0.1)">
       <use xlink:href="#DejaVuSans-31"/>
       <use x="63.623047" xlink:href="#DejaVuSans-30"/>
      </g>
     </g>
    </g>
    <g id="xtick_13">
     <g id="line2d_30">
      <g>
       <use style="stroke:#000000;stroke-width:0.8;" x="873.529412" xlink:href="#mdcdb9292b7" y="315"/>
      </g>
     </g>
     <g id="text_33">
      <!-- 15 -->
      <g transform="translate(867.166912 329.598437)scale(0.1 -0.1)">
       <use xlink:href="#DejaVuSans-31"/>
       <use x="63.623047" xlink:href="#DejaVuSans-35"/>
      </g>
     </g>
    </g>
    <g id="xtick_14">
     <g id="line2d_31">
      <g>
       <use style="stroke:#000000;stroke-width:0.8;" x="922.764706" xlink:href="#mdcdb9292b7" y="315"/>
      </g>
     </g>
     <g id="text_34">
      <!-- 20 -->
      <g transform="translate(916.402206 329.598437)scale(0.1 -0.1)">
       <use xlink:href="#DejaVuSans-32"/>
       <use x="63.623047" xlink:href="#DejaVuSans-30"/>
      </g>
     </g>
    </g>
    <g id="xtick_15">
     <g id="line2d_32">
      <g>
       <use style="stroke:#000000;stroke-width:0.8;" x="972" xlink:href="#mdcdb9292b7" y="315"/>
      </g>
     </g>
     <g id="text_35">
      <!-- 25 -->
      <g transform="translate(965.6375 329.598437)scale(0.1 -0.1)">
       <use xlink:href="#DejaVuSans-32"/>
       <use x="63.623047" xlink:href="#DejaVuSans-35"/>
      </g>
     </g>
    </g>
    <g id="text_36">
     <!-- CAPS sum score -->
     <g transform="translate(808.556296 343.276563)scale(0.1 -0.1)">
      <use xlink:href="#DejaVuSans-43"/>
      <use x="69.824219" xlink:href="#DejaVuSans-41"/>
      <use x="138.232422" xlink:href="#DejaVuSans-50"/>
      <use x="198.535156" xlink:href="#DejaVuSans-53"/>
      <use x="262.011719" xlink:href="#DejaVuSans-20"/>
      <use x="293.798828" xlink:href="#DejaVuSans-73"/>
      <use x="345.898438" xlink:href="#DejaVuSans-75"/>
      <use x="409.277344" xlink:href="#DejaVuSans-6d"/>
      <use x="506.689453" xlink:href="#DejaVuSans-20"/>
      <use x="538.476562" xlink:href="#DejaVuSans-73"/>
      <use x="590.576172" xlink:href="#DejaVuSans-63"/>
      <use x="645.556641" xlink:href="#DejaVuSans-6f"/>
      <use x="706.738281" xlink:href="#DejaVuSans-72"/>
      <use x="745.601562" xlink:href="#DejaVuSans-65"/>
     </g>
    </g>
   </g>
   <g id="matplotlib.axis_6">
    <g id="ytick_16">
     <g id="line2d_33">
      <g>
       <use style="stroke:#000000;stroke-width:0.8;" x="725.823529" xlink:href="#m9ad07a87ee" y="302.645455"/>
      </g>
     </g>
     <g id="text_37">
      <!-- 0.0 -->
      <g transform="translate(702.920404 306.444673)scale(0.1 -0.1)">
       <use xlink:href="#DejaVuSans-30"/>
       <use x="63.623047" xlink:href="#DejaVuSans-2e"/>
       <use x="95.410156" xlink:href="#DejaVuSans-30"/>
      </g>
     </g>
    </g>
    <g id="ytick_17">
     <g id="line2d_34">
      <g>
       <use style="stroke:#000000;stroke-width:0.8;" x="725.823529" xlink:href="#m9ad07a87ee" y="266.308556"/>
      </g>
     </g>
     <g id="text_38">
      <!-- 2.5 -->
      <g transform="translate(702.920404 270.107775)scale(0.1 -0.1)">
       <use xlink:href="#DejaVuSans-32"/>
       <use x="63.623047" xlink:href="#DejaVuSans-2e"/>
       <use x="95.410156" xlink:href="#DejaVuSans-35"/>
      </g>
     </g>
    </g>
    <g id="ytick_18">
     <g id="line2d_35">
      <g>
       <use style="stroke:#000000;stroke-width:0.8;" x="725.823529" xlink:href="#m9ad07a87ee" y="229.971658"/>
      </g>
     </g>
     <g id="text_39">
      <!-- 5.0 -->
      <g transform="translate(702.920404 233.770877)scale(0.1 -0.1)">
       <use xlink:href="#DejaVuSans-35"/>
       <use x="63.623047" xlink:href="#DejaVuSans-2e"/>
       <use x="95.410156" xlink:href="#DejaVuSans-30"/>
      </g>
     </g>
    </g>
    <g id="ytick_19">
     <g id="line2d_36">
      <g>
       <use style="stroke:#000000;stroke-width:0.8;" x="725.823529" xlink:href="#m9ad07a87ee" y="193.634759"/>
      </g>
     </g>
     <g id="text_40">
      <!-- 7.5 -->
      <g transform="translate(702.920404 197.433978)scale(0.1 -0.1)">
       <defs>
        <path d="M 525 4666 
L 3525 4666 
L 3525 4397 
L 1831 0 
L 1172 0 
L 2766 4134 
L 525 4134 
L 525 4666 
z
" id="DejaVuSans-37" transform="scale(0.015625)"/>
       </defs>
       <use xlink:href="#DejaVuSans-37"/>
       <use x="63.623047" xlink:href="#DejaVuSans-2e"/>
       <use x="95.410156" xlink:href="#DejaVuSans-35"/>
      </g>
     </g>
    </g>
    <g id="ytick_20">
     <g id="line2d_37">
      <g>
       <use style="stroke:#000000;stroke-width:0.8;" x="725.823529" xlink:href="#m9ad07a87ee" y="157.297861"/>
      </g>
     </g>
     <g id="text_41">
      <!-- 10.0 -->
      <g transform="translate(696.557904 161.09708)scale(0.1 -0.1)">
       <use xlink:href="#DejaVuSans-31"/>
       <use x="63.623047" xlink:href="#DejaVuSans-30"/>
       <use x="127.246094" xlink:href="#DejaVuSans-2e"/>
       <use x="159.033203" xlink:href="#DejaVuSans-30"/>
      </g>
     </g>
    </g>
    <g id="ytick_21">
     <g id="line2d_38">
      <g>
       <use style="stroke:#000000;stroke-width:0.8;" x="725.823529" xlink:href="#m9ad07a87ee" y="120.960963"/>
      </g>
     </g>
     <g id="text_42">
      <!-- 12.5 -->
      <g transform="translate(696.557904 124.760181)scale(0.1 -0.1)">
       <use xlink:href="#DejaVuSans-31"/>
       <use x="63.623047" xlink:href="#DejaVuSans-32"/>
       <use x="127.246094" xlink:href="#DejaVuSans-2e"/>
       <use x="159.033203" xlink:href="#DejaVuSans-35"/>
      </g>
     </g>
    </g>
    <g id="ytick_22">
     <g id="line2d_39">
      <g>
       <use style="stroke:#000000;stroke-width:0.8;" x="725.823529" xlink:href="#m9ad07a87ee" y="84.624064"/>
      </g>
     </g>
     <g id="text_43">
      <!-- 15.0 -->
      <g transform="translate(696.557904 88.423283)scale(0.1 -0.1)">
       <use xlink:href="#DejaVuSans-31"/>
       <use x="63.623047" xlink:href="#DejaVuSans-35"/>
       <use x="127.246094" xlink:href="#DejaVuSans-2e"/>
       <use x="159.033203" xlink:href="#DejaVuSans-30"/>
      </g>
     </g>
    </g>
    <g id="ytick_23">
     <g id="line2d_40">
      <g>
       <use style="stroke:#000000;stroke-width:0.8;" x="725.823529" xlink:href="#m9ad07a87ee" y="48.287166"/>
      </g>
     </g>
     <g id="text_44">
      <!-- 17.5 -->
      <g transform="translate(696.557904 52.086385)scale(0.1 -0.1)">
       <use xlink:href="#DejaVuSans-31"/>
       <use x="63.623047" xlink:href="#DejaVuSans-37"/>
       <use x="127.246094" xlink:href="#DejaVuSans-2e"/>
       <use x="159.033203" xlink:href="#DejaVuSans-35"/>
      </g>
     </g>
    </g>
    <g id="text_45">
     <!-- PDI sum score -->
     <g transform="translate(690.478217 214.694531)rotate(-90)scale(0.1 -0.1)">
      <use xlink:href="#DejaVuSans-50"/>
      <use x="60.302734" xlink:href="#DejaVuSans-44"/>
      <use x="137.304688" xlink:href="#DejaVuSans-49"/>
      <use x="166.796875" xlink:href="#DejaVuSans-20"/>
      <use x="198.583984" xlink:href="#DejaVuSans-73"/>
      <use x="250.683594" xlink:href="#DejaVuSans-75"/>
      <use x="314.0625" xlink:href="#DejaVuSans-6d"/>
      <use x="411.474609" xlink:href="#DejaVuSans-20"/>
      <use x="443.261719" xlink:href="#DejaVuSans-73"/>
      <use x="495.361328" xlink:href="#DejaVuSans-63"/>
      <use x="550.341797" xlink:href="#DejaVuSans-6f"/>
      <use x="611.523438" xlink:href="#DejaVuSans-72"/>
      <use x="650.386719" xlink:href="#DejaVuSans-65"/>
     </g>
    </g>
   </g>
   <g id="line2d_41">
    <path clip-path="url(#p1ba2a829e0)" d="M 725.823529 244.261962 
L 728.31016 242.691149 
L 730.796791 241.120335 
L 733.283422 239.549521 
L 735.770053 237.978708 
L 738.256684 236.407894 
L 740.743316 234.83708 
L 743.229947 233.266267 
L 745.716578 231.695453 
L 748.203209 230.124639 
L 750.68984 228.553826 
L 753.176471 226.983012 
L 755.663102 225.412198 
L 758.149733 223.841385 
L 760.636364 222.270571 
L 763.122995 220.699757 
L 765.609626 219.128944 
L 768.096257 217.55813 
L 770.582888 215.987316 
L 773.069519 214.416503 
L 775.55615 212.845689 
L 778.042781 211.274875 
L 780.529412 209.704062 
L 783.016043 208.133248 
L 785.502674 206.562434 
L 787.989305 204.991621 
L 790.475936 203.420807 
L 792.962567 201.849993 
L 795.449198 200.27918 
L 797.935829 198.708366 
L 800.42246 197.137552 
L 802.909091 195.566739 
L 805.395722 193.995925 
L 807.882353 192.425111 
L 810.368984 190.854298 
L 812.855615 189.283484 
L 815.342246 187.71267 
L 817.828877 186.141857 
L 820.315508 184.571043 
L 822.802139 183.000229 
L 825.28877 181.429416 
L 827.775401 179.858602 
L 830.262032 178.287788 
L 832.748663 176.716975 
L 835.235294 175.146161 
L 837.721925 173.575348 
L 840.208556 172.004534 
L 842.695187 170.43372 
L 845.181818 168.862907 
L 847.668449 167.292093 
L 850.15508 165.721279 
L 852.641711 164.150466 
L 855.128342 162.579652 
L 857.614973 161.008838 
L 860.101604 159.438025 
L 862.588235 157.867211 
L 865.074866 156.296397 
L 867.561497 154.725584 
L 870.048128 153.15477 
L 872.534759 151.583956 
L 875.02139 150.013143 
L 877.508021 148.442329 
L 879.994652 146.871515 
L 882.481283 145.300702 
L 884.967914 143.729888 
L 887.454545 142.159074 
L 889.941176 140.588261 
L 892.427807 139.017447 
L 894.914439 137.446633 
L 897.40107 135.87582 
L 899.887701 134.305006 
L 902.374332 132.734192 
L 904.860963 131.163379 
L 907.347594 129.592565 
L 909.834225 128.021751 
L 912.320856 126.450938 
L 914.807487 124.880124 
L 917.294118 123.30931 
L 919.780749 121.738497 
L 922.26738 120.167683 
L 924.754011 118.596869 
L 927.240642 117.026056 
L 929.727273 115.455242 
L 932.213904 113.884428 
L 934.700535 112.313615 
L 937.187166 110.742801 
L 939.673797 109.171987 
L 942.160428 107.601174 
L 944.647059 106.03036 
L 947.13369 104.459547 
L 949.620321 102.888733 
L 952.106952 101.317919 
L 954.593583 99.747106 
L 957.080214 98.176292 
L 959.566845 96.605478 
L 962.053476 95.034665 
L 964.540107 93.463851 
L 967.026738 91.893037 
L 969.513369 90.322224 
L 972 88.75141 
" style="fill:none;stroke:#28334a;stroke-linecap:square;stroke-width:2.25;"/>
   </g>
   <g id="patch_43">
    <path d="M 725.823529 315 
L 725.823529 43.2 
" style="fill:none;stroke:#000000;stroke-linecap:square;stroke-linejoin:miter;stroke-width:0.8;"/>
   </g>
   <g id="patch_44">
    <path d="M 972 315 
L 972 43.2 
" style="fill:none;stroke:#000000;stroke-linecap:square;stroke-linejoin:miter;stroke-width:0.8;"/>
   </g>
   <g id="patch_45">
    <path d="M 725.823529 315 
L 972 315 
" style="fill:none;stroke:#000000;stroke-linecap:square;stroke-linejoin:miter;stroke-width:0.8;"/>
   </g>
   <g id="patch_46">
    <path d="M 725.823529 43.2 
L 972 43.2 
" style="fill:none;stroke:#000000;stroke-linecap:square;stroke-linejoin:miter;stroke-width:0.8;"/>
   </g>
   <g id="text_46">
    <!-- Correlation CAPS &amp; PDI, r=0.71 -->
    <g transform="translate(755.033327 37.2)scale(0.12 -0.12)">
     <defs>
      <path d="M 603 4863 
L 1178 4863 
L 1178 0 
L 603 0 
L 603 4863 
z
" id="DejaVuSans-6c" transform="scale(0.015625)"/>
      <path d="M 2194 1759 
Q 1497 1759 1228 1600 
Q 959 1441 959 1056 
Q 959 750 1161 570 
Q 1363 391 1709 391 
Q 2188 391 2477 730 
Q 2766 1069 2766 1631 
L 2766 1759 
L 2194 1759 
z
M 3341 1997 
L 3341 0 
L 2766 0 
L 2766 531 
Q 2569 213 2275 61 
Q 1981 -91 1556 -91 
Q 1019 -91 701 211 
Q 384 513 384 1019 
Q 384 1609 779 1909 
Q 1175 2209 1959 2209 
L 2766 2209 
L 2766 2266 
Q 2766 2663 2505 2880 
Q 2244 3097 1772 3097 
Q 1472 3097 1187 3025 
Q 903 2953 641 2809 
L 641 3341 
Q 956 3463 1253 3523 
Q 1550 3584 1831 3584 
Q 2591 3584 2966 3190 
Q 3341 2797 3341 1997 
z
" id="DejaVuSans-61" transform="scale(0.015625)"/>
      <path d="M 1556 2509 
Q 1272 2256 1139 2004 
Q 1006 1753 1006 1478 
Q 1006 1022 1337 719 
Q 1669 416 2169 416 
Q 2466 416 2725 514 
Q 2984 613 3213 813 
L 1556 2509 
z
M 1997 2859 
L 3584 1234 
Q 3769 1513 3872 1830 
Q 3975 2147 3994 2503 
L 4575 2503 
Q 4538 2091 4375 1687 
Q 4213 1284 3922 891 
L 4794 0 
L 4006 0 
L 3559 459 
Q 3234 181 2878 45 
Q 2522 -91 2113 -91 
Q 1359 -91 881 339 
Q 403 769 403 1441 
Q 403 1841 612 2192 
Q 822 2544 1241 2853 
Q 1091 3050 1012 3245 
Q 934 3441 934 3628 
Q 934 4134 1281 4442 
Q 1628 4750 2203 4750 
Q 2463 4750 2720 4694 
Q 2978 4638 3244 4525 
L 3244 3956 
Q 2972 4103 2725 4179 
Q 2478 4256 2266 4256 
Q 1938 4256 1733 4082 
Q 1528 3909 1528 3634 
Q 1528 3475 1620 3314 
Q 1713 3153 1997 2859 
z
" id="DejaVuSans-26" transform="scale(0.015625)"/>
      <path d="M 750 794 
L 1409 794 
L 1409 256 
L 897 -744 
L 494 -744 
L 750 256 
L 750 794 
z
" id="DejaVuSans-2c" transform="scale(0.015625)"/>
      <path d="M 678 2906 
L 4684 2906 
L 4684 2381 
L 678 2381 
L 678 2906 
z
M 678 1631 
L 4684 1631 
L 4684 1100 
L 678 1100 
L 678 1631 
z
" id="DejaVuSans-3d" transform="scale(0.015625)"/>
     </defs>
     <use xlink:href="#DejaVuSans-43"/>
     <use x="69.824219" xlink:href="#DejaVuSans-6f"/>
     <use x="131.005859" xlink:href="#DejaVuSans-72"/>
     <use x="170.369141" xlink:href="#DejaVuSans-72"/>
     <use x="209.232422" xlink:href="#DejaVuSans-65"/>
     <use x="270.755859" xlink:href="#DejaVuSans-6c"/>
     <use x="298.539062" xlink:href="#DejaVuSans-61"/>
     <use x="359.818359" xlink:href="#DejaVuSans-74"/>
     <use x="399.027344" xlink:href="#DejaVuSans-69"/>
     <use x="426.810547" xlink:href="#DejaVuSans-6f"/>
     <use x="487.992188" xlink:href="#DejaVuSans-6e"/>
     <use x="551.371094" xlink:href="#DejaVuSans-20"/>
     <use x="583.158203" xlink:href="#DejaVuSans-43"/>
     <use x="652.982422" xlink:href="#DejaVuSans-41"/>
     <use x="721.390625" xlink:href="#DejaVuSans-50"/>
     <use x="781.693359" xlink:href="#DejaVuSans-53"/>
     <use x="845.169922" xlink:href="#DejaVuSans-20"/>
     <use x="876.957031" xlink:href="#DejaVuSans-26"/>
     <use x="954.935547" xlink:href="#DejaVuSans-20"/>
     <use x="986.722656" xlink:href="#DejaVuSans-50"/>
     <use x="1047.025391" xlink:href="#DejaVuSans-44"/>
     <use x="1124.027344" xlink:href="#DejaVuSans-49"/>
     <use x="1153.519531" xlink:href="#DejaVuSans-2c"/>
     <use x="1185.306641" xlink:href="#DejaVuSans-20"/>
     <use x="1217.09375" xlink:href="#DejaVuSans-72"/>
     <use x="1258.207031" xlink:href="#DejaVuSans-3d"/>
     <use x="1341.996094" xlink:href="#DejaVuSans-30"/>
     <use x="1405.619141" xlink:href="#DejaVuSans-2e"/>
     <use x="1437.40625" xlink:href="#DejaVuSans-37"/>
     <use x="1501.029297" xlink:href="#DejaVuSans-31"/>
    </g>
   </g>
  </g>
  <g id="text_47">
   <!-- Experiment 1 -->
   <g transform="translate(489.509766 18.597656)scale(0.15 -0.15)">
    <defs>
     <path d="M 628 4666 
L 3578 4666 
L 3578 4134 
L 1259 4134 
L 1259 2753 
L 3481 2753 
L 3481 2222 
L 1259 2222 
L 1259 531 
L 3634 531 
L 3634 0 
L 628 0 
L 628 4666 
z
" id="DejaVuSans-45" transform="scale(0.015625)"/>
     <path d="M 3513 3500 
L 2247 1797 
L 3578 0 
L 2900 0 
L 1881 1375 
L 863 0 
L 184 0 
L 1544 1831 
L 300 3500 
L 978 3500 
L 1906 2253 
L 2834 3500 
L 3513 3500 
z
" id="DejaVuSans-78" transform="scale(0.015625)"/>
     <path d="M 1159 525 
L 1159 -1331 
L 581 -1331 
L 581 3500 
L 1159 3500 
L 1159 2969 
Q 1341 3281 1617 3432 
Q 1894 3584 2278 3584 
Q 2916 3584 3314 3078 
Q 3713 2572 3713 1747 
Q 3713 922 3314 415 
Q 2916 -91 2278 -91 
Q 1894 -91 1617 61 
Q 1341 213 1159 525 
z
M 3116 1747 
Q 3116 2381 2855 2742 
Q 2594 3103 2138 3103 
Q 1681 3103 1420 2742 
Q 1159 2381 1159 1747 
Q 1159 1113 1420 752 
Q 1681 391 2138 391 
Q 2594 391 2855 752 
Q 3116 1113 3116 1747 
z
" id="DejaVuSans-70" transform="scale(0.015625)"/>
    </defs>
    <use xlink:href="#DejaVuSans-45"/>
    <use x="63.183594" xlink:href="#DejaVuSans-78"/>
    <use x="122.363281" xlink:href="#DejaVuSans-70"/>
    <use x="185.839844" xlink:href="#DejaVuSans-65"/>
    <use x="247.363281" xlink:href="#DejaVuSans-72"/>
    <use x="288.476562" xlink:href="#DejaVuSans-69"/>
    <use x="316.259766" xlink:href="#DejaVuSans-6d"/>
    <use x="413.671875" xlink:href="#DejaVuSans-65"/>
    <use x="475.195312" xlink:href="#DejaVuSans-6e"/>
    <use x="538.574219" xlink:href="#DejaVuSans-74"/>
    <use x="577.783203" xlink:href="#DejaVuSans-20"/>
    <use x="609.570312" xlink:href="#DejaVuSans-31"/>
   </g>
  </g>
 </g>
 <defs>
  <clipPath id="p8313cc85fd">
   <rect height="271.8" width="246.176471" x="135" y="43.2"/>
  </clipPath>
  <clipPath id="p3b498be377">
   <rect height="271.8" width="246.176471" x="430.411765" y="43.2"/>
  </clipPath>
  <clipPath id="p1ba2a829e0">
   <rect height="271.8" width="246.176471" x="725.823529" y="43.2"/>
  </clipPath>
 </defs>
</svg>
