<?xml version="1.0" encoding="utf-8" standalone="no"?>
<!DOCTYPE svg PUBLIC "-//W3C//DTD SVG 1.1//EN"
  "http://www.w3.org/Graphics/SVG/1.1/DTD/svg11.dtd">
<svg height="360pt" version="1.1" viewBox="0 0 1080 360" width="1080pt" xmlns="http://www.w3.org/2000/svg" xmlns:xlink="http://www.w3.org/1999/xlink">
 <metadata>
  <rdf:RDF xmlns:cc="http://creativecommons.org/ns#" xmlns:dc="http://purl.org/dc/elements/1.1/" xmlns:rdf="http://www.w3.org/1999/02/22-rdf-syntax-ns#">
   <cc:Work>
    <dc:type rdf:resource="http://purl.org/dc/dcmitype/StillImage"/>
    <dc:date>2022-04-07T15:28:49.799695</dc:date>
    <dc:format>image/svg+xml</dc:format>
    <dc:creator>
     <cc:Agent>
      <dc:title>Matplotlib v3.4.1, https://matplotlib.org/</dc:title>
     </cc:Agent>
    </dc:creator>
   </cc:Work>
  </rdf:RDF>
 </metadata>
 <defs>
  <style type="text/css">*{stroke-linecap:butt;stroke-linejoin:round;}</style>
 </defs>
 <g id="figure_1">
  <g id="patch_1">
   <path d="M 0 360 
L 1080 360 
L 1080 0 
L 0 0 
z
" style="fill:none;"/>
  </g>
  <g id="axes_1">
   <g id="patch_2">
    <path d="M 135 315 
L 381.176471 315 
L 381.176471 43.2 
L 135 43.2 
z
" style="fill:#ffffff;"/>
   </g>
   <g id="patch_3">
    <path clip-path="url(#p4caae568ab)" d="M 167.109974 315 
L 177.813299 315 
L 177.813299 56.142857 
L 167.109974 56.142857 
z
" style="fill:#00a4cc;opacity:0.4;"/>
   </g>
   <g id="patch_4">
    <path clip-path="url(#p4caae568ab)" d="M 177.813299 315 
L 188.516624 315 
L 188.516624 315 
L 177.813299 315 
z
" style="fill:#00a4cc;opacity:0.4;"/>
   </g>
   <g id="patch_5">
    <path clip-path="url(#p4caae568ab)" d="M 188.516624 315 
L 199.219949 315 
L 199.219949 250.285714 
L 188.516624 250.285714 
z
" style="fill:#00a4cc;opacity:0.4;"/>
   </g>
   <g id="patch_6">
    <path clip-path="url(#p4caae568ab)" d="M 199.219949 315 
L 209.923274 315 
L 209.923274 120.857143 
L 199.219949 120.857143 
z
" style="fill:#00a4cc;opacity:0.4;"/>
   </g>
   <g id="patch_7">
    <path clip-path="url(#p4caae568ab)" d="M 209.923274 315 
L 220.626598 315 
L 220.626598 185.571429 
L 209.923274 185.571429 
z
" style="fill:#00a4cc;opacity:0.4;"/>
   </g>
   <g id="patch_8">
    <path clip-path="url(#p4caae568ab)" d="M 220.626598 315 
L 231.329923 315 
L 231.329923 282.642857 
L 220.626598 282.642857 
z
" style="fill:#00a4cc;opacity:0.4;"/>
   </g>
   <g id="patch_9">
    <path clip-path="url(#p4caae568ab)" d="M 231.329923 315 
L 242.033248 315 
L 242.033248 250.285714 
L 231.329923 250.285714 
z
" style="fill:#00a4cc;opacity:0.4;"/>
   </g>
   <g id="patch_10">
    <path clip-path="url(#p4caae568ab)" d="M 242.033248 315 
L 252.736573 315 
L 252.736573 282.642857 
L 242.033248 282.642857 
z
" style="fill:#00a4cc;opacity:0.4;"/>
   </g>
   <g id="patch_11">
    <path clip-path="url(#p4caae568ab)" d="M 252.736573 315 
L 263.439898 315 
L 263.439898 282.642857 
L 252.736573 282.642857 
z
" style="fill:#00a4cc;opacity:0.4;"/>
   </g>
   <g id="patch_12">
    <path clip-path="url(#p4caae568ab)" d="M 263.439898 315 
L 274.143223 315 
L 274.143223 282.642857 
L 263.439898 282.642857 
z
" style="fill:#00a4cc;opacity:0.4;"/>
   </g>
   <g id="patch_13">
    <path clip-path="url(#p4caae568ab)" d="M 274.143223 315 
L 284.846547 315 
L 284.846547 282.642857 
L 274.143223 282.642857 
z
" style="fill:#00a4cc;opacity:0.4;"/>
   </g>
   <g id="patch_14">
    <path clip-path="url(#p4caae568ab)" d="M 284.846547 315 
L 295.549872 315 
L 295.549872 185.571429 
L 284.846547 185.571429 
z
" style="fill:#00a4cc;opacity:0.4;"/>
   </g>
   <g id="patch_15">
    <path clip-path="url(#p4caae568ab)" d="M 295.549872 315 
L 306.253197 315 
L 306.253197 217.928571 
L 295.549872 217.928571 
z
" style="fill:#00a4cc;opacity:0.4;"/>
   </g>
   <g id="patch_16">
    <path clip-path="url(#p4caae568ab)" d="M 306.253197 315 
L 316.956522 315 
L 316.956522 282.642857 
L 306.253197 282.642857 
z
" style="fill:#00a4cc;opacity:0.4;"/>
   </g>
   <g id="patch_17">
    <path clip-path="url(#p4caae568ab)" d="M 316.956522 315 
L 327.659847 315 
L 327.659847 153.214286 
L 316.956522 153.214286 
z
" style="fill:#00a4cc;opacity:0.4;"/>
   </g>
   <g id="matplotlib.axis_1">
    <g id="xtick_1">
     <g id="line2d_1">
      <defs>
       <path d="M 0 0 
L 0 3.5 
" id="m8a333937f1" style="stroke:#000000;stroke-width:0.8;"/>
      </defs>
      <g>
       <use style="stroke:#000000;stroke-width:0.8;" x="167.109974" xlink:href="#m8a333937f1" y="315"/>
      </g>
     </g>
     <g id="text_1">
      <!-- 0 -->
      <g transform="translate(163.928724 329.598437)scale(0.1 -0.1)">
       <defs>
        <path d="M 2034 4250 
Q 1547 4250 1301 3770 
Q 1056 3291 1056 2328 
Q 1056 1369 1301 889 
Q 1547 409 2034 409 
Q 2525 409 2770 889 
Q 3016 1369 3016 2328 
Q 3016 3291 2770 3770 
Q 2525 4250 2034 4250 
z
M 2034 4750 
Q 2819 4750 3233 4129 
Q 3647 3509 3647 2328 
Q 3647 1150 3233 529 
Q 2819 -91 2034 -91 
Q 1250 -91 836 529 
Q 422 1150 422 2328 
Q 422 3509 836 4129 
Q 1250 4750 2034 4750 
z
" id="DejaVuSans-30" transform="scale(0.015625)"/>
       </defs>
       <use xlink:href="#DejaVuSans-30"/>
      </g>
     </g>
    </g>
    <g id="xtick_2">
     <g id="line2d_2">
      <g>
       <use style="stroke:#000000;stroke-width:0.8;" x="220.626598" xlink:href="#m8a333937f1" y="315"/>
      </g>
     </g>
     <g id="text_2">
      <!-- 5 -->
      <g transform="translate(217.445348 329.598437)scale(0.1 -0.1)">
       <defs>
        <path d="M 691 4666 
L 3169 4666 
L 3169 4134 
L 1269 4134 
L 1269 2991 
Q 1406 3038 1543 3061 
Q 1681 3084 1819 3084 
Q 2600 3084 3056 2656 
Q 3513 2228 3513 1497 
Q 3513 744 3044 326 
Q 2575 -91 1722 -91 
Q 1428 -91 1123 -41 
Q 819 9 494 109 
L 494 744 
Q 775 591 1075 516 
Q 1375 441 1709 441 
Q 2250 441 2565 725 
Q 2881 1009 2881 1497 
Q 2881 1984 2565 2268 
Q 2250 2553 1709 2553 
Q 1456 2553 1204 2497 
Q 953 2441 691 2322 
L 691 4666 
z
" id="DejaVuSans-35" transform="scale(0.015625)"/>
       </defs>
       <use xlink:href="#DejaVuSans-35"/>
      </g>
     </g>
    </g>
    <g id="xtick_3">
     <g id="line2d_3">
      <g>
       <use style="stroke:#000000;stroke-width:0.8;" x="274.143223" xlink:href="#m8a333937f1" y="315"/>
      </g>
     </g>
     <g id="text_3">
      <!-- 10 -->
      <g transform="translate(267.780723 329.598437)scale(0.1 -0.1)">
       <defs>
        <path d="M 794 531 
L 1825 531 
L 1825 4091 
L 703 3866 
L 703 4441 
L 1819 4666 
L 2450 4666 
L 2450 531 
L 3481 531 
L 3481 0 
L 794 0 
L 794 531 
z
" id="DejaVuSans-31" transform="scale(0.015625)"/>
       </defs>
       <use xlink:href="#DejaVuSans-31"/>
       <use x="63.623047" xlink:href="#DejaVuSans-30"/>
      </g>
     </g>
    </g>
    <g id="xtick_4">
     <g id="line2d_4">
      <g>
       <use style="stroke:#000000;stroke-width:0.8;" x="327.659847" xlink:href="#m8a333937f1" y="315"/>
      </g>
     </g>
     <g id="text_4">
      <!-- 15 -->
      <g transform="translate(321.297347 329.598437)scale(0.1 -0.1)">
       <use xlink:href="#DejaVuSans-31"/>
       <use x="63.623047" xlink:href="#DejaVuSans-35"/>
      </g>
     </g>
    </g>
    <g id="xtick_5">
     <g id="line2d_5">
      <g>
       <use style="stroke:#000000;stroke-width:0.8;" x="381.176471" xlink:href="#m8a333937f1" y="315"/>
      </g>
     </g>
     <g id="text_5">
      <!-- 20 -->
      <g transform="translate(374.813971 329.598437)scale(0.1 -0.1)">
       <defs>
        <path d="M 1228 531 
L 3431 531 
L 3431 0 
L 469 0 
L 469 531 
Q 828 903 1448 1529 
Q 2069 2156 2228 2338 
Q 2531 2678 2651 2914 
Q 2772 3150 2772 3378 
Q 2772 3750 2511 3984 
Q 2250 4219 1831 4219 
Q 1534 4219 1204 4116 
Q 875 4013 500 3803 
L 500 4441 
Q 881 4594 1212 4672 
Q 1544 4750 1819 4750 
Q 2544 4750 2975 4387 
Q 3406 4025 3406 3419 
Q 3406 3131 3298 2873 
Q 3191 2616 2906 2266 
Q 2828 2175 2409 1742 
Q 1991 1309 1228 531 
z
" id="DejaVuSans-32" transform="scale(0.015625)"/>
       </defs>
       <use xlink:href="#DejaVuSans-32"/>
       <use x="63.623047" xlink:href="#DejaVuSans-30"/>
      </g>
     </g>
    </g>
    <g id="text_6">
     <!-- Sum score -->
     <g transform="translate(231.853079 343.276563)scale(0.1 -0.1)">
      <defs>
       <path d="M 3425 4513 
L 3425 3897 
Q 3066 4069 2747 4153 
Q 2428 4238 2131 4238 
Q 1616 4238 1336 4038 
Q 1056 3838 1056 3469 
Q 1056 3159 1242 3001 
Q 1428 2844 1947 2747 
L 2328 2669 
Q 3034 2534 3370 2195 
Q 3706 1856 3706 1288 
Q 3706 609 3251 259 
Q 2797 -91 1919 -91 
Q 1588 -91 1214 -16 
Q 841 59 441 206 
L 441 856 
Q 825 641 1194 531 
Q 1563 422 1919 422 
Q 2459 422 2753 634 
Q 3047 847 3047 1241 
Q 3047 1584 2836 1778 
Q 2625 1972 2144 2069 
L 1759 2144 
Q 1053 2284 737 2584 
Q 422 2884 422 3419 
Q 422 4038 858 4394 
Q 1294 4750 2059 4750 
Q 2388 4750 2728 4690 
Q 3069 4631 3425 4513 
z
" id="DejaVuSans-53" transform="scale(0.015625)"/>
       <path d="M 544 1381 
L 544 3500 
L 1119 3500 
L 1119 1403 
Q 1119 906 1312 657 
Q 1506 409 1894 409 
Q 2359 409 2629 706 
Q 2900 1003 2900 1516 
L 2900 3500 
L 3475 3500 
L 3475 0 
L 2900 0 
L 2900 538 
Q 2691 219 2414 64 
Q 2138 -91 1772 -91 
Q 1169 -91 856 284 
Q 544 659 544 1381 
z
M 1991 3584 
L 1991 3584 
z
" id="DejaVuSans-75" transform="scale(0.015625)"/>
       <path d="M 3328 2828 
Q 3544 3216 3844 3400 
Q 4144 3584 4550 3584 
Q 5097 3584 5394 3201 
Q 5691 2819 5691 2113 
L 5691 0 
L 5113 0 
L 5113 2094 
Q 5113 2597 4934 2840 
Q 4756 3084 4391 3084 
Q 3944 3084 3684 2787 
Q 3425 2491 3425 1978 
L 3425 0 
L 2847 0 
L 2847 2094 
Q 2847 2600 2669 2842 
Q 2491 3084 2119 3084 
Q 1678 3084 1418 2786 
Q 1159 2488 1159 1978 
L 1159 0 
L 581 0 
L 581 3500 
L 1159 3500 
L 1159 2956 
Q 1356 3278 1631 3431 
Q 1906 3584 2284 3584 
Q 2666 3584 2933 3390 
Q 3200 3197 3328 2828 
z
" id="DejaVuSans-6d" transform="scale(0.015625)"/>
       <path id="DejaVuSans-20" transform="scale(0.015625)"/>
       <path d="M 2834 3397 
L 2834 2853 
Q 2591 2978 2328 3040 
Q 2066 3103 1784 3103 
Q 1356 3103 1142 2972 
Q 928 2841 928 2578 
Q 928 2378 1081 2264 
Q 1234 2150 1697 2047 
L 1894 2003 
Q 2506 1872 2764 1633 
Q 3022 1394 3022 966 
Q 3022 478 2636 193 
Q 2250 -91 1575 -91 
Q 1294 -91 989 -36 
Q 684 19 347 128 
L 347 722 
Q 666 556 975 473 
Q 1284 391 1588 391 
Q 1994 391 2212 530 
Q 2431 669 2431 922 
Q 2431 1156 2273 1281 
Q 2116 1406 1581 1522 
L 1381 1569 
Q 847 1681 609 1914 
Q 372 2147 372 2553 
Q 372 3047 722 3315 
Q 1072 3584 1716 3584 
Q 2034 3584 2315 3537 
Q 2597 3491 2834 3397 
z
" id="DejaVuSans-73" transform="scale(0.015625)"/>
       <path d="M 3122 3366 
L 3122 2828 
Q 2878 2963 2633 3030 
Q 2388 3097 2138 3097 
Q 1578 3097 1268 2742 
Q 959 2388 959 1747 
Q 959 1106 1268 751 
Q 1578 397 2138 397 
Q 2388 397 2633 464 
Q 2878 531 3122 666 
L 3122 134 
Q 2881 22 2623 -34 
Q 2366 -91 2075 -91 
Q 1284 -91 818 406 
Q 353 903 353 1747 
Q 353 2603 823 3093 
Q 1294 3584 2113 3584 
Q 2378 3584 2631 3529 
Q 2884 3475 3122 3366 
z
" id="DejaVuSans-63" transform="scale(0.015625)"/>
       <path d="M 1959 3097 
Q 1497 3097 1228 2736 
Q 959 2375 959 1747 
Q 959 1119 1226 758 
Q 1494 397 1959 397 
Q 2419 397 2687 759 
Q 2956 1122 2956 1747 
Q 2956 2369 2687 2733 
Q 2419 3097 1959 3097 
z
M 1959 3584 
Q 2709 3584 3137 3096 
Q 3566 2609 3566 1747 
Q 3566 888 3137 398 
Q 2709 -91 1959 -91 
Q 1206 -91 779 398 
Q 353 888 353 1747 
Q 353 2609 779 3096 
Q 1206 3584 1959 3584 
z
" id="DejaVuSans-6f" transform="scale(0.015625)"/>
       <path d="M 2631 2963 
Q 2534 3019 2420 3045 
Q 2306 3072 2169 3072 
Q 1681 3072 1420 2755 
Q 1159 2438 1159 1844 
L 1159 0 
L 581 0 
L 581 3500 
L 1159 3500 
L 1159 2956 
Q 1341 3275 1631 3429 
Q 1922 3584 2338 3584 
Q 2397 3584 2469 3576 
Q 2541 3569 2628 3553 
L 2631 2963 
z
" id="DejaVuSans-72" transform="scale(0.015625)"/>
       <path d="M 3597 1894 
L 3597 1613 
L 953 1613 
Q 991 1019 1311 708 
Q 1631 397 2203 397 
Q 2534 397 2845 478 
Q 3156 559 3463 722 
L 3463 178 
Q 3153 47 2828 -22 
Q 2503 -91 2169 -91 
Q 1331 -91 842 396 
Q 353 884 353 1716 
Q 353 2575 817 3079 
Q 1281 3584 2069 3584 
Q 2775 3584 3186 3129 
Q 3597 2675 3597 1894 
z
M 3022 2063 
Q 3016 2534 2758 2815 
Q 2500 3097 2075 3097 
Q 1594 3097 1305 2825 
Q 1016 2553 972 2059 
L 3022 2063 
z
" id="DejaVuSans-65" transform="scale(0.015625)"/>
      </defs>
      <use xlink:href="#DejaVuSans-53"/>
      <use x="63.476562" xlink:href="#DejaVuSans-75"/>
      <use x="126.855469" xlink:href="#DejaVuSans-6d"/>
      <use x="224.267578" xlink:href="#DejaVuSans-20"/>
      <use x="256.054688" xlink:href="#DejaVuSans-73"/>
      <use x="308.154297" xlink:href="#DejaVuSans-63"/>
      <use x="363.134766" xlink:href="#DejaVuSans-6f"/>
      <use x="424.316406" xlink:href="#DejaVuSans-72"/>
      <use x="463.179688" xlink:href="#DejaVuSans-65"/>
     </g>
    </g>
   </g>
   <g id="matplotlib.axis_2">
    <g id="ytick_1">
     <g id="line2d_6">
      <defs>
       <path d="M 0 0 
L -3.5 0 
" id="me35ed78b70" style="stroke:#000000;stroke-width:0.8;"/>
      </defs>
      <g>
       <use style="stroke:#000000;stroke-width:0.8;" x="135" xlink:href="#me35ed78b70" y="315"/>
      </g>
     </g>
     <g id="text_7">
      <!-- 0.000 -->
      <g transform="translate(99.371875 318.799219)scale(0.1 -0.1)">
       <defs>
        <path d="M 684 794 
L 1344 794 
L 1344 0 
L 684 0 
L 684 794 
z
" id="DejaVuSans-2e" transform="scale(0.015625)"/>
       </defs>
       <use xlink:href="#DejaVuSans-30"/>
       <use x="63.623047" xlink:href="#DejaVuSans-2e"/>
       <use x="95.410156" xlink:href="#DejaVuSans-30"/>
       <use x="159.033203" xlink:href="#DejaVuSans-30"/>
       <use x="222.65625" xlink:href="#DejaVuSans-30"/>
      </g>
     </g>
    </g>
    <g id="ytick_2">
     <g id="line2d_7">
      <g>
       <use style="stroke:#000000;stroke-width:0.8;" x="135" xlink:href="#me35ed78b70" y="282.642857"/>
      </g>
     </g>
     <g id="text_8">
      <!-- 0.025 -->
      <g transform="translate(99.371875 286.442076)scale(0.1 -0.1)">
       <use xlink:href="#DejaVuSans-30"/>
       <use x="63.623047" xlink:href="#DejaVuSans-2e"/>
       <use x="95.410156" xlink:href="#DejaVuSans-30"/>
       <use x="159.033203" xlink:href="#DejaVuSans-32"/>
       <use x="222.65625" xlink:href="#DejaVuSans-35"/>
      </g>
     </g>
    </g>
    <g id="ytick_3">
     <g id="line2d_8">
      <g>
       <use style="stroke:#000000;stroke-width:0.8;" x="135" xlink:href="#me35ed78b70" y="250.285714"/>
      </g>
     </g>
     <g id="text_9">
      <!-- 0.050 -->
      <g transform="translate(99.371875 254.084933)scale(0.1 -0.1)">
       <use xlink:href="#DejaVuSans-30"/>
       <use x="63.623047" xlink:href="#DejaVuSans-2e"/>
       <use x="95.410156" xlink:href="#DejaVuSans-30"/>
       <use x="159.033203" xlink:href="#DejaVuSans-35"/>
       <use x="222.65625" xlink:href="#DejaVuSans-30"/>
      </g>
     </g>
    </g>
    <g id="ytick_4">
     <g id="line2d_9">
      <g>
       <use style="stroke:#000000;stroke-width:0.8;" x="135" xlink:href="#me35ed78b70" y="217.928571"/>
      </g>
     </g>
     <g id="text_10">
      <!-- 0.075 -->
      <g transform="translate(99.371875 221.72779)scale(0.1 -0.1)">
       <defs>
        <path d="M 525 4666 
L 3525 4666 
L 3525 4397 
L 1831 0 
L 1172 0 
L 2766 4134 
L 525 4134 
L 525 4666 
z
" id="DejaVuSans-37" transform="scale(0.015625)"/>
       </defs>
       <use xlink:href="#DejaVuSans-30"/>
       <use x="63.623047" xlink:href="#DejaVuSans-2e"/>
       <use x="95.410156" xlink:href="#DejaVuSans-30"/>
       <use x="159.033203" xlink:href="#DejaVuSans-37"/>
       <use x="222.65625" xlink:href="#DejaVuSans-35"/>
      </g>
     </g>
    </g>
    <g id="ytick_5">
     <g id="line2d_10">
      <g>
       <use style="stroke:#000000;stroke-width:0.8;" x="135" xlink:href="#me35ed78b70" y="185.571429"/>
      </g>
     </g>
     <g id="text_11">
      <!-- 0.100 -->
      <g transform="translate(99.371875 189.370647)scale(0.1 -0.1)">
       <use xlink:href="#DejaVuSans-30"/>
       <use x="63.623047" xlink:href="#DejaVuSans-2e"/>
       <use x="95.410156" xlink:href="#DejaVuSans-31"/>
       <use x="159.033203" xlink:href="#DejaVuSans-30"/>
       <use x="222.65625" xlink:href="#DejaVuSans-30"/>
      </g>
     </g>
    </g>
    <g id="ytick_6">
     <g id="line2d_11">
      <g>
       <use style="stroke:#000000;stroke-width:0.8;" x="135" xlink:href="#me35ed78b70" y="153.214286"/>
      </g>
     </g>
     <g id="text_12">
      <!-- 0.125 -->
      <g transform="translate(99.371875 157.013504)scale(0.1 -0.1)">
       <use xlink:href="#DejaVuSans-30"/>
       <use x="63.623047" xlink:href="#DejaVuSans-2e"/>
       <use x="95.410156" xlink:href="#DejaVuSans-31"/>
       <use x="159.033203" xlink:href="#DejaVuSans-32"/>
       <use x="222.65625" xlink:href="#DejaVuSans-35"/>
      </g>
     </g>
    </g>
    <g id="ytick_7">
     <g id="line2d_12">
      <g>
       <use style="stroke:#000000;stroke-width:0.8;" x="135" xlink:href="#me35ed78b70" y="120.857143"/>
      </g>
     </g>
     <g id="text_13">
      <!-- 0.150 -->
      <g transform="translate(99.371875 124.656362)scale(0.1 -0.1)">
       <use xlink:href="#DejaVuSans-30"/>
       <use x="63.623047" xlink:href="#DejaVuSans-2e"/>
       <use x="95.410156" xlink:href="#DejaVuSans-31"/>
       <use x="159.033203" xlink:href="#DejaVuSans-35"/>
       <use x="222.65625" xlink:href="#DejaVuSans-30"/>
      </g>
     </g>
    </g>
    <g id="ytick_8">
     <g id="line2d_13">
      <g>
       <use style="stroke:#000000;stroke-width:0.8;" x="135" xlink:href="#me35ed78b70" y="88.5"/>
      </g>
     </g>
     <g id="text_14">
      <!-- 0.175 -->
      <g transform="translate(99.371875 92.299219)scale(0.1 -0.1)">
       <use xlink:href="#DejaVuSans-30"/>
       <use x="63.623047" xlink:href="#DejaVuSans-2e"/>
       <use x="95.410156" xlink:href="#DejaVuSans-31"/>
       <use x="159.033203" xlink:href="#DejaVuSans-37"/>
       <use x="222.65625" xlink:href="#DejaVuSans-35"/>
      </g>
     </g>
    </g>
    <g id="ytick_9">
     <g id="line2d_14">
      <g>
       <use style="stroke:#000000;stroke-width:0.8;" x="135" xlink:href="#me35ed78b70" y="56.142857"/>
      </g>
     </g>
     <g id="text_15">
      <!-- 0.200 -->
      <g transform="translate(99.371875 59.942076)scale(0.1 -0.1)">
       <use xlink:href="#DejaVuSans-30"/>
       <use x="63.623047" xlink:href="#DejaVuSans-2e"/>
       <use x="95.410156" xlink:href="#DejaVuSans-32"/>
       <use x="159.033203" xlink:href="#DejaVuSans-30"/>
       <use x="222.65625" xlink:href="#DejaVuSans-30"/>
      </g>
     </g>
    </g>
    <g id="text_16">
     <!-- Density -->
     <g transform="translate(93.292187 198.108594)rotate(-90)scale(0.1 -0.1)">
      <defs>
       <path d="M 1259 4147 
L 1259 519 
L 2022 519 
Q 2988 519 3436 956 
Q 3884 1394 3884 2338 
Q 3884 3275 3436 3711 
Q 2988 4147 2022 4147 
L 1259 4147 
z
M 628 4666 
L 1925 4666 
Q 3281 4666 3915 4102 
Q 4550 3538 4550 2338 
Q 4550 1131 3912 565 
Q 3275 0 1925 0 
L 628 0 
L 628 4666 
z
" id="DejaVuSans-44" transform="scale(0.015625)"/>
       <path d="M 3513 2113 
L 3513 0 
L 2938 0 
L 2938 2094 
Q 2938 2591 2744 2837 
Q 2550 3084 2163 3084 
Q 1697 3084 1428 2787 
Q 1159 2491 1159 1978 
L 1159 0 
L 581 0 
L 581 3500 
L 1159 3500 
L 1159 2956 
Q 1366 3272 1645 3428 
Q 1925 3584 2291 3584 
Q 2894 3584 3203 3211 
Q 3513 2838 3513 2113 
z
" id="DejaVuSans-6e" transform="scale(0.015625)"/>
       <path d="M 603 3500 
L 1178 3500 
L 1178 0 
L 603 0 
L 603 3500 
z
M 603 4863 
L 1178 4863 
L 1178 4134 
L 603 4134 
L 603 4863 
z
" id="DejaVuSans-69" transform="scale(0.015625)"/>
       <path d="M 1172 4494 
L 1172 3500 
L 2356 3500 
L 2356 3053 
L 1172 3053 
L 1172 1153 
Q 1172 725 1289 603 
Q 1406 481 1766 481 
L 2356 481 
L 2356 0 
L 1766 0 
Q 1100 0 847 248 
Q 594 497 594 1153 
L 594 3053 
L 172 3053 
L 172 3500 
L 594 3500 
L 594 4494 
L 1172 4494 
z
" id="DejaVuSans-74" transform="scale(0.015625)"/>
       <path d="M 2059 -325 
Q 1816 -950 1584 -1140 
Q 1353 -1331 966 -1331 
L 506 -1331 
L 506 -850 
L 844 -850 
Q 1081 -850 1212 -737 
Q 1344 -625 1503 -206 
L 1606 56 
L 191 3500 
L 800 3500 
L 1894 763 
L 2988 3500 
L 3597 3500 
L 2059 -325 
z
" id="DejaVuSans-79" transform="scale(0.015625)"/>
      </defs>
      <use xlink:href="#DejaVuSans-44"/>
      <use x="77.001953" xlink:href="#DejaVuSans-65"/>
      <use x="138.525391" xlink:href="#DejaVuSans-6e"/>
      <use x="201.904297" xlink:href="#DejaVuSans-73"/>
      <use x="254.003906" xlink:href="#DejaVuSans-69"/>
      <use x="281.787109" xlink:href="#DejaVuSans-74"/>
      <use x="320.996094" xlink:href="#DejaVuSans-79"/>
     </g>
    </g>
   </g>
   <g id="line2d_15">
    <path clip-path="url(#p4caae568ab)" d="M 83.006908 314.351766 
L 88.184168 314.083781 
L 93.361428 313.587461 
L 98.538688 312.791894 
L 103.715948 311.602898 
L 106.304578 310.826386 
L 108.893208 309.908699 
L 111.481837 308.834708 
L 114.070467 307.589629 
L 116.659097 306.159543 
L 119.247727 304.531964 
L 121.836357 302.696415 
L 124.424987 300.645011 
L 127.013617 298.373008 
L 129.602247 295.879302 
L 132.190877 293.166832 
L 134.779507 290.242885 
L 137.368137 287.119268 
L 142.545397 280.342827 
L 147.722657 273.019475 
L 163.254437 250.350552 
L 168.431697 243.531198 
L 171.020327 240.417765 
L 173.608957 237.542281 
L 176.197587 234.931441 
L 178.786216 232.608651 
L 181.374846 230.59378 
L 183.963476 228.902955 
L 186.552106 227.548375 
L 189.140736 226.538145 
L 191.729366 225.876112 
L 194.317996 225.561724 
L 196.906626 225.589897 
L 199.495256 225.950924 
L 202.083886 226.630429 
L 204.672516 227.609392 
L 207.261146 228.864271 
L 209.849776 230.367219 
L 212.438406 232.086435 
L 215.027036 233.986628 
L 220.204296 238.175044 
L 230.558816 246.945071 
L 235.736076 250.881583 
L 238.324706 252.614985 
L 240.913336 254.155861 
L 243.501966 255.483862 
L 246.090596 256.584505 
L 248.679225 257.449468 
L 251.267855 258.076716 
L 253.856485 258.470464 
L 256.445115 258.640964 
L 259.033745 258.604143 
L 261.622375 258.381088 
L 264.211005 257.997406 
L 269.388265 256.868583 
L 282.331415 253.537009 
L 284.920045 253.058472 
L 287.508675 252.714374 
L 290.097305 252.529571 
L 292.685935 252.525079 
L 295.274565 252.717791 
L 297.863195 253.12032 
L 300.451825 253.74095 
L 303.040455 254.583693 
L 305.629085 255.648426 
L 308.217715 256.931098 
L 310.806345 258.423996 
L 313.394975 260.116051 
L 315.983604 261.993169 
L 318.572234 264.038589 
L 323.749494 268.556205 
L 328.926754 273.495957 
L 347.047164 291.359936 
L 352.224424 295.905084 
L 357.401684 299.961869 
L 359.990314 301.784599 
L 362.578944 303.463658 
L 365.167574 304.997405 
L 367.756204 306.386624 
L 370.344834 307.634285 
L 372.933464 308.74526 
L 375.522094 309.726002 
L 380.699354 311.328459 
L 385.876613 312.511916 
L 391.053873 313.350468 
L 396.231133 313.912929 
L 401.408393 314.255662 
L 406.585653 314.41734 
L 411.762913 314.415277 
L 411.762913 314.415277 
" style="fill:none;stroke:#00a4cc;stroke-linecap:square;stroke-width:1.5;"/>
   </g>
   <g id="patch_18">
    <path d="M 135 315 
L 135 43.2 
" style="fill:none;stroke:#000000;stroke-linecap:square;stroke-linejoin:miter;stroke-width:0.8;"/>
   </g>
   <g id="patch_19">
    <path d="M 381.176471 315 
L 381.176471 43.2 
" style="fill:none;stroke:#000000;stroke-linecap:square;stroke-linejoin:miter;stroke-width:0.8;"/>
   </g>
   <g id="patch_20">
    <path d="M 135 315 
L 381.176471 315 
" style="fill:none;stroke:#000000;stroke-linecap:square;stroke-linejoin:miter;stroke-width:0.8;"/>
   </g>
   <g id="patch_21">
    <path d="M 135 43.2 
L 381.176471 43.2 
" style="fill:none;stroke:#000000;stroke-linecap:square;stroke-linejoin:miter;stroke-width:0.8;"/>
   </g>
   <g id="text_17">
    <!-- PDI -->
    <g transform="translate(248.080423 37.2)scale(0.12 -0.12)">
     <defs>
      <path d="M 1259 4147 
L 1259 2394 
L 2053 2394 
Q 2494 2394 2734 2622 
Q 2975 2850 2975 3272 
Q 2975 3691 2734 3919 
Q 2494 4147 2053 4147 
L 1259 4147 
z
M 628 4666 
L 2053 4666 
Q 2838 4666 3239 4311 
Q 3641 3956 3641 3272 
Q 3641 2581 3239 2228 
Q 2838 1875 2053 1875 
L 1259 1875 
L 1259 0 
L 628 0 
L 628 4666 
z
" id="DejaVuSans-50" transform="scale(0.015625)"/>
      <path d="M 628 4666 
L 1259 4666 
L 1259 0 
L 628 0 
L 628 4666 
z
" id="DejaVuSans-49" transform="scale(0.015625)"/>
     </defs>
     <use xlink:href="#DejaVuSans-50"/>
     <use x="60.302734" xlink:href="#DejaVuSans-44"/>
     <use x="137.304688" xlink:href="#DejaVuSans-49"/>
    </g>
   </g>
  </g>
  <g id="axes_2">
   <g id="patch_22">
    <path d="M 430.411765 315 
L 676.588235 315 
L 676.588235 43.2 
L 430.411765 43.2 
z
" style="fill:#ffffff;"/>
   </g>
   <g id="patch_23">
    <path clip-path="url(#p48a5d97a5a)" d="M 456.787815 315 
L 466.752101 315 
L 466.752101 56.142857 
L 456.787815 56.142857 
z
" style="fill:#fbde44;opacity:0.4;"/>
   </g>
   <g id="patch_24">
    <path clip-path="url(#p48a5d97a5a)" d="M 466.752101 315 
L 476.716387 315 
L 476.716387 222.55102 
L 466.752101 222.55102 
z
" style="fill:#fbde44;opacity:0.4;"/>
   </g>
   <g id="patch_25">
    <path clip-path="url(#p48a5d97a5a)" d="M 476.716387 315 
L 486.680672 315 
L 486.680672 278.020408 
L 476.716387 278.020408 
z
" style="fill:#fbde44;opacity:0.4;"/>
   </g>
   <g id="patch_26">
    <path clip-path="url(#p48a5d97a5a)" d="M 486.680672 315 
L 496.644958 315 
L 496.644958 241.040816 
L 486.680672 241.040816 
z
" style="fill:#fbde44;opacity:0.4;"/>
   </g>
   <g id="patch_27">
    <path clip-path="url(#p48a5d97a5a)" d="M 496.644958 315 
L 506.609244 315 
L 506.609244 278.020408 
L 496.644958 278.020408 
z
" style="fill:#fbde44;opacity:0.4;"/>
   </g>
   <g id="patch_28">
    <path clip-path="url(#p48a5d97a5a)" d="M 506.609244 315 
L 516.573529 315 
L 516.573529 278.020408 
L 506.609244 278.020408 
z
" style="fill:#fbde44;opacity:0.4;"/>
   </g>
   <g id="patch_29">
    <path clip-path="url(#p48a5d97a5a)" d="M 516.573529 315 
L 526.537815 315 
L 526.537815 259.530612 
L 516.573529 259.530612 
z
" style="fill:#fbde44;opacity:0.4;"/>
   </g>
   <g id="patch_30">
    <path clip-path="url(#p48a5d97a5a)" d="M 526.537815 315 
L 536.502101 315 
L 536.502101 296.510204 
L 526.537815 296.510204 
z
" style="fill:#fbde44;opacity:0.4;"/>
   </g>
   <g id="patch_31">
    <path clip-path="url(#p48a5d97a5a)" d="M 536.502101 315 
L 546.466387 315 
L 546.466387 315 
L 536.502101 315 
z
" style="fill:#fbde44;opacity:0.4;"/>
   </g>
   <g id="patch_32">
    <path clip-path="url(#p48a5d97a5a)" d="M 546.466387 315 
L 556.430672 315 
L 556.430672 259.530612 
L 546.466387 259.530612 
z
" style="fill:#fbde44;opacity:0.4;"/>
   </g>
   <g id="patch_33">
    <path clip-path="url(#p48a5d97a5a)" d="M 556.430672 315 
L 566.394958 315 
L 566.394958 296.510204 
L 556.430672 296.510204 
z
" style="fill:#fbde44;opacity:0.4;"/>
   </g>
   <g id="patch_34">
    <path clip-path="url(#p48a5d97a5a)" d="M 566.394958 315 
L 576.359244 315 
L 576.359244 296.510204 
L 566.394958 296.510204 
z
" style="fill:#fbde44;opacity:0.4;"/>
   </g>
   <g id="patch_35">
    <path clip-path="url(#p48a5d97a5a)" d="M 576.359244 315 
L 586.323529 315 
L 586.323529 315 
L 576.359244 315 
z
" style="fill:#fbde44;opacity:0.4;"/>
   </g>
   <g id="patch_36">
    <path clip-path="url(#p48a5d97a5a)" d="M 586.323529 315 
L 596.287815 315 
L 596.287815 296.510204 
L 586.323529 296.510204 
z
" style="fill:#fbde44;opacity:0.4;"/>
   </g>
   <g id="patch_37">
    <path clip-path="url(#p48a5d97a5a)" d="M 596.287815 315 
L 606.252101 315 
L 606.252101 296.510204 
L 596.287815 296.510204 
z
" style="fill:#fbde44;opacity:0.4;"/>
   </g>
   <g id="matplotlib.axis_3">
    <g id="xtick_6">
     <g id="line2d_16">
      <g>
       <use style="stroke:#000000;stroke-width:0.8;" x="456.787815" xlink:href="#m8a333937f1" y="315"/>
      </g>
     </g>
     <g id="text_18">
      <!-- 0 -->
      <g transform="translate(453.606565 329.598437)scale(0.1 -0.1)">
       <use xlink:href="#DejaVuSans-30"/>
      </g>
     </g>
    </g>
    <g id="xtick_7">
     <g id="line2d_17">
      <g>
       <use style="stroke:#000000;stroke-width:0.8;" x="500.747899" xlink:href="#m8a333937f1" y="315"/>
      </g>
     </g>
     <g id="text_19">
      <!-- 5 -->
      <g transform="translate(497.566649 329.598437)scale(0.1 -0.1)">
       <use xlink:href="#DejaVuSans-35"/>
      </g>
     </g>
    </g>
    <g id="xtick_8">
     <g id="line2d_18">
      <g>
       <use style="stroke:#000000;stroke-width:0.8;" x="544.707983" xlink:href="#m8a333937f1" y="315"/>
      </g>
     </g>
     <g id="text_20">
      <!-- 10 -->
      <g transform="translate(538.345483 329.598437)scale(0.1 -0.1)">
       <use xlink:href="#DejaVuSans-31"/>
       <use x="63.623047" xlink:href="#DejaVuSans-30"/>
      </g>
     </g>
    </g>
    <g id="xtick_9">
     <g id="line2d_19">
      <g>
       <use style="stroke:#000000;stroke-width:0.8;" x="588.668067" xlink:href="#m8a333937f1" y="315"/>
      </g>
     </g>
     <g id="text_21">
      <!-- 15 -->
      <g transform="translate(582.305567 329.598437)scale(0.1 -0.1)">
       <use xlink:href="#DejaVuSans-31"/>
       <use x="63.623047" xlink:href="#DejaVuSans-35"/>
      </g>
     </g>
    </g>
    <g id="xtick_10">
     <g id="line2d_20">
      <g>
       <use style="stroke:#000000;stroke-width:0.8;" x="632.628151" xlink:href="#m8a333937f1" y="315"/>
      </g>
     </g>
     <g id="text_22">
      <!-- 20 -->
      <g transform="translate(626.265651 329.598437)scale(0.1 -0.1)">
       <use xlink:href="#DejaVuSans-32"/>
       <use x="63.623047" xlink:href="#DejaVuSans-30"/>
      </g>
     </g>
    </g>
    <g id="xtick_11">
     <g id="line2d_21">
      <g>
       <use style="stroke:#000000;stroke-width:0.8;" x="676.588235" xlink:href="#m8a333937f1" y="315"/>
      </g>
     </g>
     <g id="text_23">
      <!-- 25 -->
      <g transform="translate(670.225735 329.598437)scale(0.1 -0.1)">
       <use xlink:href="#DejaVuSans-32"/>
       <use x="63.623047" xlink:href="#DejaVuSans-35"/>
      </g>
     </g>
    </g>
    <g id="text_24">
     <!-- Sum score -->
     <g transform="translate(527.264844 343.276563)scale(0.1 -0.1)">
      <use xlink:href="#DejaVuSans-53"/>
      <use x="63.476562" xlink:href="#DejaVuSans-75"/>
      <use x="126.855469" xlink:href="#DejaVuSans-6d"/>
      <use x="224.267578" xlink:href="#DejaVuSans-20"/>
      <use x="256.054688" xlink:href="#DejaVuSans-73"/>
      <use x="308.154297" xlink:href="#DejaVuSans-63"/>
      <use x="363.134766" xlink:href="#DejaVuSans-6f"/>
      <use x="424.316406" xlink:href="#DejaVuSans-72"/>
      <use x="463.179688" xlink:href="#DejaVuSans-65"/>
     </g>
    </g>
   </g>
   <g id="matplotlib.axis_4">
    <g id="ytick_10">
     <g id="line2d_22">
      <g>
       <use style="stroke:#000000;stroke-width:0.8;" x="430.411765" xlink:href="#me35ed78b70" y="315"/>
      </g>
     </g>
     <g id="text_25">
      <!-- 0.00 -->
      <g transform="translate(401.14614 318.799219)scale(0.1 -0.1)">
       <use xlink:href="#DejaVuSans-30"/>
       <use x="63.623047" xlink:href="#DejaVuSans-2e"/>
       <use x="95.410156" xlink:href="#DejaVuSans-30"/>
       <use x="159.033203" xlink:href="#DejaVuSans-30"/>
      </g>
     </g>
    </g>
    <g id="ytick_11">
     <g id="line2d_23">
      <g>
       <use style="stroke:#000000;stroke-width:0.8;" x="430.411765" xlink:href="#me35ed78b70" y="273.089796"/>
      </g>
     </g>
     <g id="text_26">
      <!-- 0.05 -->
      <g transform="translate(401.14614 276.889015)scale(0.1 -0.1)">
       <use xlink:href="#DejaVuSans-30"/>
       <use x="63.623047" xlink:href="#DejaVuSans-2e"/>
       <use x="95.410156" xlink:href="#DejaVuSans-30"/>
       <use x="159.033203" xlink:href="#DejaVuSans-35"/>
      </g>
     </g>
    </g>
    <g id="ytick_12">
     <g id="line2d_24">
      <g>
       <use style="stroke:#000000;stroke-width:0.8;" x="430.411765" xlink:href="#me35ed78b70" y="231.179592"/>
      </g>
     </g>
     <g id="text_27">
      <!-- 0.10 -->
      <g transform="translate(401.14614 234.978811)scale(0.1 -0.1)">
       <use xlink:href="#DejaVuSans-30"/>
       <use x="63.623047" xlink:href="#DejaVuSans-2e"/>
       <use x="95.410156" xlink:href="#DejaVuSans-31"/>
       <use x="159.033203" xlink:href="#DejaVuSans-30"/>
      </g>
     </g>
    </g>
    <g id="ytick_13">
     <g id="line2d_25">
      <g>
       <use style="stroke:#000000;stroke-width:0.8;" x="430.411765" xlink:href="#me35ed78b70" y="189.269388"/>
      </g>
     </g>
     <g id="text_28">
      <!-- 0.15 -->
      <g transform="translate(401.14614 193.068607)scale(0.1 -0.1)">
       <use xlink:href="#DejaVuSans-30"/>
       <use x="63.623047" xlink:href="#DejaVuSans-2e"/>
       <use x="95.410156" xlink:href="#DejaVuSans-31"/>
       <use x="159.033203" xlink:href="#DejaVuSans-35"/>
      </g>
     </g>
    </g>
    <g id="ytick_14">
     <g id="line2d_26">
      <g>
       <use style="stroke:#000000;stroke-width:0.8;" x="430.411765" xlink:href="#me35ed78b70" y="147.359184"/>
      </g>
     </g>
     <g id="text_29">
      <!-- 0.20 -->
      <g transform="translate(401.14614 151.158402)scale(0.1 -0.1)">
       <use xlink:href="#DejaVuSans-30"/>
       <use x="63.623047" xlink:href="#DejaVuSans-2e"/>
       <use x="95.410156" xlink:href="#DejaVuSans-32"/>
       <use x="159.033203" xlink:href="#DejaVuSans-30"/>
      </g>
     </g>
    </g>
    <g id="ytick_15">
     <g id="line2d_27">
      <g>
       <use style="stroke:#000000;stroke-width:0.8;" x="430.411765" xlink:href="#me35ed78b70" y="105.44898"/>
      </g>
     </g>
     <g id="text_30">
      <!-- 0.25 -->
      <g transform="translate(401.14614 109.248198)scale(0.1 -0.1)">
       <use xlink:href="#DejaVuSans-30"/>
       <use x="63.623047" xlink:href="#DejaVuSans-2e"/>
       <use x="95.410156" xlink:href="#DejaVuSans-32"/>
       <use x="159.033203" xlink:href="#DejaVuSans-35"/>
      </g>
     </g>
    </g>
    <g id="ytick_16">
     <g id="line2d_28">
      <g>
       <use style="stroke:#000000;stroke-width:0.8;" x="430.411765" xlink:href="#me35ed78b70" y="63.538776"/>
      </g>
     </g>
     <g id="text_31">
      <!-- 0.30 -->
      <g transform="translate(401.14614 67.337994)scale(0.1 -0.1)">
       <defs>
        <path d="M 2597 2516 
Q 3050 2419 3304 2112 
Q 3559 1806 3559 1356 
Q 3559 666 3084 287 
Q 2609 -91 1734 -91 
Q 1441 -91 1130 -33 
Q 819 25 488 141 
L 488 750 
Q 750 597 1062 519 
Q 1375 441 1716 441 
Q 2309 441 2620 675 
Q 2931 909 2931 1356 
Q 2931 1769 2642 2001 
Q 2353 2234 1838 2234 
L 1294 2234 
L 1294 2753 
L 1863 2753 
Q 2328 2753 2575 2939 
Q 2822 3125 2822 3475 
Q 2822 3834 2567 4026 
Q 2313 4219 1838 4219 
Q 1578 4219 1281 4162 
Q 984 4106 628 3988 
L 628 4550 
Q 988 4650 1302 4700 
Q 1616 4750 1894 4750 
Q 2613 4750 3031 4423 
Q 3450 4097 3450 3541 
Q 3450 3153 3228 2886 
Q 3006 2619 2597 2516 
z
" id="DejaVuSans-33" transform="scale(0.015625)"/>
       </defs>
       <use xlink:href="#DejaVuSans-30"/>
       <use x="63.623047" xlink:href="#DejaVuSans-2e"/>
       <use x="95.410156" xlink:href="#DejaVuSans-33"/>
       <use x="159.033203" xlink:href="#DejaVuSans-30"/>
      </g>
     </g>
    </g>
   </g>
   <g id="line2d_29">
    <path clip-path="url(#p48a5d97a5a)" d="M 397.381444 314.507449 
L 401.606279 314.125152 
L 405.831114 313.45619 
L 407.943531 312.972578 
L 410.055949 312.362375 
L 412.168366 311.602444 
L 414.280784 310.667964 
L 416.393202 309.533093 
L 418.505619 308.17187 
L 420.618037 306.559312 
L 422.730454 304.672715 
L 424.842872 302.493096 
L 426.955289 300.00672 
L 429.067707 297.206618 
L 431.180124 294.094014 
L 433.292542 290.679534 
L 435.404959 286.984091 
L 439.629795 278.887699 
L 445.967047 265.75901 
L 450.191882 257.135211 
L 452.3043 253.086124 
L 454.416717 249.309208 
L 456.529135 245.870004 
L 458.641553 242.825174 
L 460.75397 240.220385 
L 462.866388 238.088744 
L 464.978805 236.449899 
L 467.091223 235.309822 
L 469.20364 234.66128 
L 471.316058 234.484938 
L 473.428475 234.750976 
L 475.540893 235.421123 
L 477.65331 236.450927 
L 479.765728 237.792133 
L 481.878146 239.395002 
L 483.990563 241.210446 
L 488.215398 245.296642 
L 494.552651 252.003213 
L 503.002321 261.02834 
L 509.339574 267.494645 
L 515.676826 273.568325 
L 519.901661 277.317706 
L 524.126497 280.737471 
L 528.351332 283.73935 
L 532.576167 286.250565 
L 534.688584 287.310069 
L 536.801002 288.239353 
L 541.025837 289.732782 
L 545.250672 290.81986 
L 549.475507 291.637693 
L 560.037595 293.504762 
L 564.26243 294.480323 
L 568.487265 295.650473 
L 574.824518 297.695377 
L 589.611441 302.689031 
L 598.061111 305.180141 
L 608.623199 307.987352 
L 619.185286 310.555327 
L 625.522539 311.889124 
L 631.859792 312.979219 
L 638.197044 313.789193 
L 644.534297 314.32986 
L 650.87155 314.643129 
L 657.208802 314.768535 
L 663.546055 314.701501 
L 665.658472 314.623325 
L 665.658472 314.623325 
" style="fill:none;stroke:#fbde44;stroke-linecap:square;stroke-width:1.5;"/>
   </g>
   <g id="patch_38">
    <path d="M 430.411765 315 
L 430.411765 43.2 
" style="fill:none;stroke:#000000;stroke-linecap:square;stroke-linejoin:miter;stroke-width:0.8;"/>
   </g>
   <g id="patch_39">
    <path d="M 676.588235 315 
L 676.588235 43.2 
" style="fill:none;stroke:#000000;stroke-linecap:square;stroke-linejoin:miter;stroke-width:0.8;"/>
   </g>
   <g id="patch_40">
    <path d="M 430.411765 315 
L 676.588235 315 
" style="fill:none;stroke:#000000;stroke-linecap:square;stroke-linejoin:miter;stroke-width:0.8;"/>
   </g>
   <g id="patch_41">
    <path d="M 430.411765 43.2 
L 676.588235 43.2 
" style="fill:none;stroke:#000000;stroke-linecap:square;stroke-linejoin:miter;stroke-width:0.8;"/>
   </g>
   <g id="text_32">
    <!-- CAPS -->
    <g transform="translate(537.779063 37.2)scale(0.12 -0.12)">
     <defs>
      <path d="M 4122 4306 
L 4122 3641 
Q 3803 3938 3442 4084 
Q 3081 4231 2675 4231 
Q 1875 4231 1450 3742 
Q 1025 3253 1025 2328 
Q 1025 1406 1450 917 
Q 1875 428 2675 428 
Q 3081 428 3442 575 
Q 3803 722 4122 1019 
L 4122 359 
Q 3791 134 3420 21 
Q 3050 -91 2638 -91 
Q 1578 -91 968 557 
Q 359 1206 359 2328 
Q 359 3453 968 4101 
Q 1578 4750 2638 4750 
Q 3056 4750 3426 4639 
Q 3797 4528 4122 4306 
z
" id="DejaVuSans-43" transform="scale(0.015625)"/>
      <path d="M 2188 4044 
L 1331 1722 
L 3047 1722 
L 2188 4044 
z
M 1831 4666 
L 2547 4666 
L 4325 0 
L 3669 0 
L 3244 1197 
L 1141 1197 
L 716 0 
L 50 0 
L 1831 4666 
z
" id="DejaVuSans-41" transform="scale(0.015625)"/>
     </defs>
     <use xlink:href="#DejaVuSans-43"/>
     <use x="69.824219" xlink:href="#DejaVuSans-41"/>
     <use x="138.232422" xlink:href="#DejaVuSans-50"/>
     <use x="198.535156" xlink:href="#DejaVuSans-53"/>
    </g>
   </g>
  </g>
  <g id="axes_3">
   <g id="patch_42">
    <path d="M 725.823529 315 
L 972 315 
L 972 43.2 
L 725.823529 43.2 
z
" style="fill:#ffffff;"/>
   </g>
   <g id="PathCollection_1">
    <defs>
     <path d="M 0 3 
C 0.795609 3 1.55874 2.683901 2.12132 2.12132 
C 2.683901 1.55874 3 0.795609 3 0 
C 3 -0.795609 2.683901 -1.55874 2.12132 -2.12132 
C 1.55874 -2.683901 0.795609 -3 0 -3 
C -0.795609 -3 -1.55874 -2.683901 -2.12132 -2.12132 
C -2.683901 -1.55874 -3 -0.795609 -3 0 
C -3 0.795609 -2.683901 1.55874 -2.12132 2.12132 
C -1.55874 2.683901 -0.795609 3 0 3 
z
" id="m63da0fd696" style="stroke:#28334a;stroke-opacity:0.8;"/>
    </defs>
    <g clip-path="url(#pd42a8e907d)">
     <use style="fill:#28334a;fill-opacity:0.8;stroke:#28334a;stroke-opacity:0.8;" x="754.785467" xlink:href="#m63da0fd696" y="302.645455"/>
     <use style="fill:#28334a;fill-opacity:0.8;stroke:#28334a;stroke-opacity:0.8;" x="740.304498" xlink:href="#m63da0fd696" y="267.0818"/>
     <use style="fill:#28334a;fill-opacity:0.8;stroke:#28334a;stroke-opacity:0.8;" x="812.709343" xlink:href="#m63da0fd696" y="255.227249"/>
     <use style="fill:#28334a;fill-opacity:0.8;stroke:#28334a;stroke-opacity:0.8;" x="841.67128" xlink:href="#m63da0fd696" y="231.518146"/>
     <use style="fill:#28334a;fill-opacity:0.8;stroke:#28334a;stroke-opacity:0.8;" x="740.304498" xlink:href="#m63da0fd696" y="267.0818"/>
     <use style="fill:#28334a;fill-opacity:0.8;stroke:#28334a;stroke-opacity:0.8;" x="740.304498" xlink:href="#m63da0fd696" y="243.372698"/>
     <use style="fill:#28334a;fill-opacity:0.8;stroke:#28334a;stroke-opacity:0.8;" x="725.823529" xlink:href="#m63da0fd696" y="231.518146"/>
     <use style="fill:#28334a;fill-opacity:0.8;stroke:#28334a;stroke-opacity:0.8;" x="754.785467" xlink:href="#m63da0fd696" y="255.227249"/>
     <use style="fill:#28334a;fill-opacity:0.8;stroke:#28334a;stroke-opacity:0.8;" x="725.823529" xlink:href="#m63da0fd696" y="267.0818"/>
     <use style="fill:#28334a;fill-opacity:0.8;stroke:#28334a;stroke-opacity:0.8;" x="783.747405" xlink:href="#m63da0fd696" y="278.936352"/>
     <use style="fill:#28334a;fill-opacity:0.8;stroke:#28334a;stroke-opacity:0.8;" x="740.304498" xlink:href="#m63da0fd696" y="207.809044"/>
     <use style="fill:#28334a;fill-opacity:0.8;stroke:#28334a;stroke-opacity:0.8;" x="812.709343" xlink:href="#m63da0fd696" y="172.24539"/>
     <use style="fill:#28334a;fill-opacity:0.8;stroke:#28334a;stroke-opacity:0.8;" x="827.190311" xlink:href="#m63da0fd696" y="195.954492"/>
     <use style="fill:#28334a;fill-opacity:0.8;stroke:#28334a;stroke-opacity:0.8;" x="972" xlink:href="#m63da0fd696" y="172.24539"/>
     <use style="fill:#28334a;fill-opacity:0.8;stroke:#28334a;stroke-opacity:0.8;" x="754.785467" xlink:href="#m63da0fd696" y="302.645455"/>
     <use style="fill:#28334a;fill-opacity:0.8;stroke:#28334a;stroke-opacity:0.8;" x="899.595156" xlink:href="#m63da0fd696" y="136.681735"/>
     <use style="fill:#28334a;fill-opacity:0.8;stroke:#28334a;stroke-opacity:0.8;" x="885.114187" xlink:href="#m63da0fd696" y="160.390838"/>
     <use style="fill:#28334a;fill-opacity:0.8;stroke:#28334a;stroke-opacity:0.8;" x="885.114187" xlink:href="#m63da0fd696" y="148.536287"/>
     <use style="fill:#28334a;fill-opacity:0.8;stroke:#28334a;stroke-opacity:0.8;" x="827.190311" xlink:href="#m63da0fd696" y="124.827184"/>
     <use style="fill:#28334a;fill-opacity:0.8;stroke:#28334a;stroke-opacity:0.8;" x="798.228374" xlink:href="#m63da0fd696" y="184.099941"/>
     <use style="fill:#28334a;fill-opacity:0.8;stroke:#28334a;stroke-opacity:0.8;" x="885.114187" xlink:href="#m63da0fd696" y="124.827184"/>
     <use style="fill:#28334a;fill-opacity:0.8;stroke:#28334a;stroke-opacity:0.8;" x="769.266436" xlink:href="#m63da0fd696" y="172.24539"/>
     <use style="fill:#28334a;fill-opacity:0.8;stroke:#28334a;stroke-opacity:0.8;" x="725.823529" xlink:href="#m63da0fd696" y="255.227249"/>
     <use style="fill:#28334a;fill-opacity:0.8;stroke:#28334a;stroke-opacity:0.8;" x="943.038062" xlink:href="#m63da0fd696" y="136.681735"/>
     <use style="fill:#28334a;fill-opacity:0.8;stroke:#28334a;stroke-opacity:0.8;" x="725.823529" xlink:href="#m63da0fd696" y="302.645455"/>
     <use style="fill:#28334a;fill-opacity:0.8;stroke:#28334a;stroke-opacity:0.8;" x="725.823529" xlink:href="#m63da0fd696" y="219.663595"/>
     <use style="fill:#28334a;fill-opacity:0.8;stroke:#28334a;stroke-opacity:0.8;" x="769.266436" xlink:href="#m63da0fd696" y="278.936352"/>
     <use style="fill:#28334a;fill-opacity:0.8;stroke:#28334a;stroke-opacity:0.8;" x="725.823529" xlink:href="#m63da0fd696" y="302.645455"/>
     <use style="fill:#28334a;fill-opacity:0.8;stroke:#28334a;stroke-opacity:0.8;" x="914.076125" xlink:href="#m63da0fd696" y="124.827184"/>
     <use style="fill:#28334a;fill-opacity:0.8;stroke:#28334a;stroke-opacity:0.8;" x="783.747405" xlink:href="#m63da0fd696" y="267.0818"/>
     <use style="fill:#28334a;fill-opacity:0.8;stroke:#28334a;stroke-opacity:0.8;" x="798.228374" xlink:href="#m63da0fd696" y="160.390838"/>
     <use style="fill:#28334a;fill-opacity:0.8;stroke:#28334a;stroke-opacity:0.8;" x="783.747405" xlink:href="#m63da0fd696" y="172.24539"/>
     <use style="fill:#28334a;fill-opacity:0.8;stroke:#28334a;stroke-opacity:0.8;" x="725.823529" xlink:href="#m63da0fd696" y="302.645455"/>
     <use style="fill:#28334a;fill-opacity:0.8;stroke:#28334a;stroke-opacity:0.8;" x="827.190311" xlink:href="#m63da0fd696" y="160.390838"/>
     <use style="fill:#28334a;fill-opacity:0.8;stroke:#28334a;stroke-opacity:0.8;" x="754.785467" xlink:href="#m63da0fd696" y="255.227249"/>
     <use style="fill:#28334a;fill-opacity:0.8;stroke:#28334a;stroke-opacity:0.8;" x="740.304498" xlink:href="#m63da0fd696" y="302.645455"/>
     <use style="fill:#28334a;fill-opacity:0.8;stroke:#28334a;stroke-opacity:0.8;" x="754.785467" xlink:href="#m63da0fd696" y="302.645455"/>
     <use style="fill:#28334a;fill-opacity:0.8;stroke:#28334a;stroke-opacity:0.8;" x="725.823529" xlink:href="#m63da0fd696" y="302.645455"/>
     <use style="fill:#28334a;fill-opacity:0.8;stroke:#28334a;stroke-opacity:0.8;" x="783.747405" xlink:href="#m63da0fd696" y="267.0818"/>
     <use style="fill:#28334a;fill-opacity:0.8;stroke:#28334a;stroke-opacity:0.8;" x="725.823529" xlink:href="#m63da0fd696" y="267.0818"/>
    </g>
   </g>
   <g id="PolyCollection_1">
    <path clip-path="url(#pd42a8e907d)" d="M 725.823529 256.066931 
L 725.823529 288.362784 
L 728.31016 286.399508 
L 730.796791 284.473979 
L 733.283422 282.280993 
L 735.770053 279.974689 
L 738.256684 277.948714 
L 740.743316 275.61473 
L 743.229947 273.623464 
L 745.716578 271.629004 
L 748.203209 269.801967 
L 750.68984 267.736664 
L 753.176471 265.591998 
L 755.663102 263.731587 
L 758.149733 261.904808 
L 760.636364 260.137596 
L 763.122995 258.355628 
L 765.609626 256.584145 
L 768.096257 254.812662 
L 770.582888 253.082079 
L 773.069519 251.406044 
L 775.55615 249.513065 
L 778.042781 247.702685 
L 780.529412 245.926327 
L 783.016043 244.171165 
L 785.502674 242.531901 
L 787.989305 240.717637 
L 790.475936 238.910179 
L 792.962567 237.102722 
L 795.449198 235.390017 
L 797.935829 233.849862 
L 800.42246 232.309707 
L 802.909091 230.750116 
L 805.395722 229.167323 
L 807.882353 227.524614 
L 810.368984 225.787671 
L 812.855615 224.095378 
L 815.342246 222.374277 
L 817.828877 220.658181 
L 820.315508 218.946375 
L 822.802139 217.262637 
L 825.28877 215.686198 
L 827.775401 214.192011 
L 830.262032 212.763457 
L 832.748663 211.250847 
L 835.235294 209.8414 
L 837.721925 208.403135 
L 840.208556 206.918103 
L 842.695187 205.452329 
L 845.181818 203.954223 
L 847.668449 202.478184 
L 850.15508 200.932574 
L 852.641711 199.484631 
L 855.128342 197.944362 
L 857.614973 196.540751 
L 860.101604 195.088684 
L 862.588235 193.54063 
L 865.074866 192.078271 
L 867.561497 190.587111 
L 870.048128 189.165198 
L 872.534759 187.63052 
L 875.02139 186.096216 
L 877.508021 184.593321 
L 879.994652 183.191532 
L 882.481283 181.778322 
L 884.967914 180.375969 
L 887.454545 178.969521 
L 889.941176 177.56266 
L 892.427807 176.133604 
L 894.914439 174.748932 
L 897.40107 173.288311 
L 899.887701 171.82769 
L 902.374332 170.367069 
L 904.860963 168.906449 
L 907.347594 167.452393 
L 909.834225 166.13775 
L 912.320856 164.913694 
L 914.807487 163.510493 
L 917.294118 162.10518 
L 919.780749 160.690251 
L 922.26738 159.297233 
L 924.754011 158.059512 
L 927.240642 156.779104 
L 929.727273 155.474381 
L 932.213904 154.118907 
L 934.700535 152.75811 
L 937.187166 151.514162 
L 939.673797 150.051339 
L 942.160428 148.557561 
L 944.647059 147.185077 
L 947.13369 145.915119 
L 949.620321 144.506496 
L 952.106952 143.182961 
L 954.593583 141.8868 
L 957.080214 140.499851 
L 959.566845 139.101519 
L 962.053476 137.702669 
L 964.540107 136.301688 
L 967.026738 134.900707 
L 969.513369 133.499725 
L 972 132.098744 
L 972 55.554545 
L 972 55.554545 
L 969.513369 57.767523 
L 967.026738 59.980501 
L 964.540107 62.193479 
L 962.053476 64.406456 
L 959.566845 66.621627 
L 957.080214 68.899219 
L 954.593583 71.258133 
L 952.106952 73.370105 
L 949.620321 75.471807 
L 947.13369 77.702409 
L 944.647059 79.95193 
L 942.160428 82.201451 
L 939.673797 84.450972 
L 937.187166 86.656129 
L 934.700535 88.841782 
L 932.213904 91.003544 
L 929.727273 93.166339 
L 927.240642 95.377027 
L 924.754011 97.583115 
L 922.26738 99.803137 
L 919.780749 102.014477 
L 917.294118 104.226529 
L 914.807487 106.479408 
L 912.320856 108.7897 
L 909.834225 111.099992 
L 907.347594 113.410284 
L 904.860963 115.724376 
L 902.374332 117.865488 
L 899.887701 120.281719 
L 897.40107 122.589879 
L 894.914439 124.866953 
L 892.427807 127.144027 
L 889.941176 129.421102 
L 887.454545 131.632441 
L 884.967914 133.804802 
L 882.481283 135.977163 
L 879.994652 138.149524 
L 877.508021 140.280526 
L 875.02139 142.375248 
L 872.534759 144.46997 
L 870.048128 146.824635 
L 867.561497 149.017219 
L 865.074866 151.193653 
L 862.588235 153.451586 
L 860.101604 155.821398 
L 857.614973 158.191211 
L 855.128342 160.561024 
L 852.641711 162.918135 
L 850.15508 164.984528 
L 847.668449 167.057218 
L 845.181818 169.359688 
L 842.695187 171.385185 
L 840.208556 173.664982 
L 837.721925 175.655216 
L 835.235294 177.646831 
L 832.748663 179.639247 
L 830.262032 181.741507 
L 827.775401 184.015005 
L 825.28877 186.290373 
L 822.802139 188.318022 
L 820.315508 190.708608 
L 817.828877 193.016491 
L 815.342246 195.083604 
L 812.855615 196.989543 
L 810.368984 198.964551 
L 807.882353 201.129281 
L 805.395722 203.034749 
L 802.909091 205.328937 
L 800.42246 207.030241 
L 797.935829 208.88095 
L 795.449198 210.881199 
L 792.962567 212.957288 
L 790.475936 214.784275 
L 787.989305 216.50879 
L 785.502674 218.383529 
L 783.016043 220.061697 
L 780.529412 221.689133 
L 778.042781 223.628937 
L 775.55615 225.40616 
L 773.069519 227.050775 
L 770.582888 228.568188 
L 768.096257 230.270291 
L 765.609626 231.62819 
L 763.122995 233.129631 
L 760.636364 234.911283 
L 758.149733 236.476125 
L 755.663102 237.9616 
L 753.176471 239.499124 
L 750.68984 241.011142 
L 748.203209 242.456629 
L 745.716578 244.038949 
L 743.229947 245.557798 
L 740.743316 247.210963 
L 738.256684 248.848059 
L 735.770053 250.102997 
L 733.283422 251.610416 
L 730.796791 253.119965 
L 728.31016 254.545865 
L 725.823529 256.066931 
z
" style="fill:#28334a;fill-opacity:0.15;"/>
   </g>
   <g id="matplotlib.axis_5">
    <g id="xtick_12">
     <g id="line2d_30">
      <g>
       <use style="stroke:#000000;stroke-width:0.8;" x="725.823529" xlink:href="#m8a333937f1" y="315"/>
      </g>
     </g>
     <g id="text_33">
      <!-- 0.0 -->
      <g transform="translate(717.871967 329.598437)scale(0.1 -0.1)">
       <use xlink:href="#DejaVuSans-30"/>
       <use x="63.623047" xlink:href="#DejaVuSans-2e"/>
       <use x="95.410156" xlink:href="#DejaVuSans-30"/>
      </g>
     </g>
    </g>
    <g id="xtick_13">
     <g id="line2d_31">
      <g>
       <use style="stroke:#000000;stroke-width:0.8;" x="762.025952" xlink:href="#m8a333937f1" y="315"/>
      </g>
     </g>
     <g id="text_34">
      <!-- 2.5 -->
      <g transform="translate(754.074389 329.598437)scale(0.1 -0.1)">
       <use xlink:href="#DejaVuSans-32"/>
       <use x="63.623047" xlink:href="#DejaVuSans-2e"/>
       <use x="95.410156" xlink:href="#DejaVuSans-35"/>
      </g>
     </g>
    </g>
    <g id="xtick_14">
     <g id="line2d_32">
      <g>
       <use style="stroke:#000000;stroke-width:0.8;" x="798.228374" xlink:href="#m8a333937f1" y="315"/>
      </g>
     </g>
     <g id="text_35">
      <!-- 5.0 -->
      <g transform="translate(790.276811 329.598437)scale(0.1 -0.1)">
       <use xlink:href="#DejaVuSans-35"/>
       <use x="63.623047" xlink:href="#DejaVuSans-2e"/>
       <use x="95.410156" xlink:href="#DejaVuSans-30"/>
      </g>
     </g>
    </g>
    <g id="xtick_15">
     <g id="line2d_33">
      <g>
       <use style="stroke:#000000;stroke-width:0.8;" x="834.430796" xlink:href="#m8a333937f1" y="315"/>
      </g>
     </g>
     <g id="text_36">
      <!-- 7.5 -->
      <g transform="translate(826.479233 329.598437)scale(0.1 -0.1)">
       <use xlink:href="#DejaVuSans-37"/>
       <use x="63.623047" xlink:href="#DejaVuSans-2e"/>
       <use x="95.410156" xlink:href="#DejaVuSans-35"/>
      </g>
     </g>
    </g>
    <g id="xtick_16">
     <g id="line2d_34">
      <g>
       <use style="stroke:#000000;stroke-width:0.8;" x="870.633218" xlink:href="#m8a333937f1" y="315"/>
      </g>
     </g>
     <g id="text_37">
      <!-- 10.0 -->
      <g transform="translate(859.500405 329.598437)scale(0.1 -0.1)">
       <use xlink:href="#DejaVuSans-31"/>
       <use x="63.623047" xlink:href="#DejaVuSans-30"/>
       <use x="127.246094" xlink:href="#DejaVuSans-2e"/>
       <use x="159.033203" xlink:href="#DejaVuSans-30"/>
      </g>
     </g>
    </g>
    <g id="xtick_17">
     <g id="line2d_35">
      <g>
       <use style="stroke:#000000;stroke-width:0.8;" x="906.83564" xlink:href="#m8a333937f1" y="315"/>
      </g>
     </g>
     <g id="text_38">
      <!-- 12.5 -->
      <g transform="translate(895.702828 329.598437)scale(0.1 -0.1)">
       <use xlink:href="#DejaVuSans-31"/>
       <use x="63.623047" xlink:href="#DejaVuSans-32"/>
       <use x="127.246094" xlink:href="#DejaVuSans-2e"/>
       <use x="159.033203" xlink:href="#DejaVuSans-35"/>
      </g>
     </g>
    </g>
    <g id="xtick_18">
     <g id="line2d_36">
      <g>
       <use style="stroke:#000000;stroke-width:0.8;" x="943.038062" xlink:href="#m8a333937f1" y="315"/>
      </g>
     </g>
     <g id="text_39">
      <!-- 15.0 -->
      <g transform="translate(931.90525 329.598437)scale(0.1 -0.1)">
       <use xlink:href="#DejaVuSans-31"/>
       <use x="63.623047" xlink:href="#DejaVuSans-35"/>
       <use x="127.246094" xlink:href="#DejaVuSans-2e"/>
       <use x="159.033203" xlink:href="#DejaVuSans-30"/>
      </g>
     </g>
    </g>
    <g id="text_40">
     <!-- CAPS sum score -->
     <g transform="translate(808.556296 343.276563)scale(0.1 -0.1)">
      <use xlink:href="#DejaVuSans-43"/>
      <use x="69.824219" xlink:href="#DejaVuSans-41"/>
      <use x="138.232422" xlink:href="#DejaVuSans-50"/>
      <use x="198.535156" xlink:href="#DejaVuSans-53"/>
      <use x="262.011719" xlink:href="#DejaVuSans-20"/>
      <use x="293.798828" xlink:href="#DejaVuSans-73"/>
      <use x="345.898438" xlink:href="#DejaVuSans-75"/>
      <use x="409.277344" xlink:href="#DejaVuSans-6d"/>
      <use x="506.689453" xlink:href="#DejaVuSans-20"/>
      <use x="538.476562" xlink:href="#DejaVuSans-73"/>
      <use x="590.576172" xlink:href="#DejaVuSans-63"/>
      <use x="645.556641" xlink:href="#DejaVuSans-6f"/>
      <use x="706.738281" xlink:href="#DejaVuSans-72"/>
      <use x="745.601562" xlink:href="#DejaVuSans-65"/>
     </g>
    </g>
   </g>
   <g id="matplotlib.axis_6">
    <g id="ytick_17">
     <g id="line2d_37">
      <g>
       <use style="stroke:#000000;stroke-width:0.8;" x="725.823529" xlink:href="#me35ed78b70" y="302.645455"/>
      </g>
     </g>
     <g id="text_41">
      <!-- 0 -->
      <g transform="translate(712.461029 306.444673)scale(0.1 -0.1)">
       <use xlink:href="#DejaVuSans-30"/>
      </g>
     </g>
    </g>
    <g id="ytick_18">
     <g id="line2d_38">
      <g>
       <use style="stroke:#000000;stroke-width:0.8;" x="725.823529" xlink:href="#me35ed78b70" y="243.372698"/>
      </g>
     </g>
     <g id="text_42">
      <!-- 5 -->
      <g transform="translate(712.461029 247.171916)scale(0.1 -0.1)">
       <use xlink:href="#DejaVuSans-35"/>
      </g>
     </g>
    </g>
    <g id="ytick_19">
     <g id="line2d_39">
      <g>
       <use style="stroke:#000000;stroke-width:0.8;" x="725.823529" xlink:href="#me35ed78b70" y="184.099941"/>
      </g>
     </g>
     <g id="text_43">
      <!-- 10 -->
      <g transform="translate(706.098529 187.89916)scale(0.1 -0.1)">
       <use xlink:href="#DejaVuSans-31"/>
       <use x="63.623047" xlink:href="#DejaVuSans-30"/>
      </g>
     </g>
    </g>
    <g id="ytick_20">
     <g id="line2d_40">
      <g>
       <use style="stroke:#000000;stroke-width:0.8;" x="725.823529" xlink:href="#me35ed78b70" y="124.827184"/>
      </g>
     </g>
     <g id="text_44">
      <!-- 15 -->
      <g transform="translate(706.098529 128.626403)scale(0.1 -0.1)">
       <use xlink:href="#DejaVuSans-31"/>
       <use x="63.623047" xlink:href="#DejaVuSans-35"/>
      </g>
     </g>
    </g>
    <g id="ytick_21">
     <g id="line2d_41">
      <g>
       <use style="stroke:#000000;stroke-width:0.8;" x="725.823529" xlink:href="#me35ed78b70" y="65.554427"/>
      </g>
     </g>
     <g id="text_45">
      <!-- 20 -->
      <g transform="translate(706.098529 69.353646)scale(0.1 -0.1)">
       <use xlink:href="#DejaVuSans-32"/>
       <use x="63.623047" xlink:href="#DejaVuSans-30"/>
      </g>
     </g>
    </g>
    <g id="text_46">
     <!-- PDI sum score -->
     <g transform="translate(700.018842 214.694531)rotate(-90)scale(0.1 -0.1)">
      <use xlink:href="#DejaVuSans-50"/>
      <use x="60.302734" xlink:href="#DejaVuSans-44"/>
      <use x="137.304688" xlink:href="#DejaVuSans-49"/>
      <use x="166.796875" xlink:href="#DejaVuSans-20"/>
      <use x="198.583984" xlink:href="#DejaVuSans-73"/>
      <use x="250.683594" xlink:href="#DejaVuSans-75"/>
      <use x="314.0625" xlink:href="#DejaVuSans-6d"/>
      <use x="411.474609" xlink:href="#DejaVuSans-20"/>
      <use x="443.261719" xlink:href="#DejaVuSans-73"/>
      <use x="495.361328" xlink:href="#DejaVuSans-63"/>
      <use x="550.341797" xlink:href="#DejaVuSans-6f"/>
      <use x="611.523438" xlink:href="#DejaVuSans-72"/>
      <use x="650.386719" xlink:href="#DejaVuSans-65"/>
     </g>
    </g>
   </g>
   <g id="line2d_42">
    <path clip-path="url(#pd42a8e907d)" d="M 725.823529 272.103609 
L 728.31016 270.36595 
L 730.796791 268.628291 
L 733.283422 266.890632 
L 735.770053 265.152973 
L 738.256684 263.415314 
L 740.743316 261.677655 
L 743.229947 259.939996 
L 745.716578 258.202337 
L 748.203209 256.464679 
L 750.68984 254.72702 
L 753.176471 252.989361 
L 755.663102 251.251702 
L 758.149733 249.514043 
L 760.636364 247.776384 
L 763.122995 246.038725 
L 765.609626 244.301066 
L 768.096257 242.563407 
L 770.582888 240.825749 
L 773.069519 239.08809 
L 775.55615 237.350431 
L 778.042781 235.612772 
L 780.529412 233.875113 
L 783.016043 232.137454 
L 785.502674 230.399795 
L 787.989305 228.662136 
L 790.475936 226.924478 
L 792.962567 225.186819 
L 795.449198 223.44916 
L 797.935829 221.711501 
L 800.42246 219.973842 
L 802.909091 218.236183 
L 805.395722 216.498524 
L 807.882353 214.760865 
L 810.368984 213.023206 
L 812.855615 211.285548 
L 815.342246 209.547889 
L 817.828877 207.81023 
L 820.315508 206.072571 
L 822.802139 204.334912 
L 825.28877 202.597253 
L 827.775401 200.859594 
L 830.262032 199.121935 
L 832.748663 197.384276 
L 835.235294 195.646618 
L 837.721925 193.908959 
L 840.208556 192.1713 
L 842.695187 190.433641 
L 845.181818 188.695982 
L 847.668449 186.958323 
L 850.15508 185.220664 
L 852.641711 183.483005 
L 855.128342 181.745346 
L 857.614973 180.007688 
L 860.101604 178.270029 
L 862.588235 176.53237 
L 865.074866 174.794711 
L 867.561497 173.057052 
L 870.048128 171.319393 
L 872.534759 169.581734 
L 875.02139 167.844075 
L 877.508021 166.106416 
L 879.994652 164.368758 
L 882.481283 162.631099 
L 884.967914 160.89344 
L 887.454545 159.155781 
L 889.941176 157.418122 
L 892.427807 155.680463 
L 894.914439 153.942804 
L 897.40107 152.205145 
L 899.887701 150.467487 
L 902.374332 148.729828 
L 904.860963 146.992169 
L 907.347594 145.25451 
L 909.834225 143.516851 
L 912.320856 141.779192 
L 914.807487 140.041533 
L 917.294118 138.303874 
L 919.780749 136.566215 
L 922.26738 134.828557 
L 924.754011 133.090898 
L 927.240642 131.353239 
L 929.727273 129.61558 
L 932.213904 127.877921 
L 934.700535 126.140262 
L 937.187166 124.402603 
L 939.673797 122.664944 
L 942.160428 120.927285 
L 944.647059 119.189627 
L 947.13369 117.451968 
L 949.620321 115.714309 
L 952.106952 113.97665 
L 954.593583 112.238991 
L 957.080214 110.501332 
L 959.566845 108.763673 
L 962.053476 107.026014 
L 964.540107 105.288355 
L 967.026738 103.550697 
L 969.513369 101.813038 
L 972 100.075379 
" style="fill:none;stroke:#28334a;stroke-linecap:square;stroke-width:2.25;"/>
   </g>
   <g id="patch_43">
    <path d="M 725.823529 315 
L 725.823529 43.2 
" style="fill:none;stroke:#000000;stroke-linecap:square;stroke-linejoin:miter;stroke-width:0.8;"/>
   </g>
   <g id="patch_44">
    <path d="M 972 315 
L 972 43.2 
" style="fill:none;stroke:#000000;stroke-linecap:square;stroke-linejoin:miter;stroke-width:0.8;"/>
   </g>
   <g id="patch_45">
    <path d="M 725.823529 315 
L 972 315 
" style="fill:none;stroke:#000000;stroke-linecap:square;stroke-linejoin:miter;stroke-width:0.8;"/>
   </g>
   <g id="patch_46">
    <path d="M 725.823529 43.2 
L 972 43.2 
" style="fill:none;stroke:#000000;stroke-linecap:square;stroke-linejoin:miter;stroke-width:0.8;"/>
   </g>
   <g id="text_47">
    <!-- Correlation CAPS &amp; PDI, r=0.76 -->
    <g transform="translate(755.033327 37.2)scale(0.12 -0.12)">
     <defs>
      <path d="M 603 4863 
L 1178 4863 
L 1178 0 
L 603 0 
L 603 4863 
z
" id="DejaVuSans-6c" transform="scale(0.015625)"/>
      <path d="M 2194 1759 
Q 1497 1759 1228 1600 
Q 959 1441 959 1056 
Q 959 750 1161 570 
Q 1363 391 1709 391 
Q 2188 391 2477 730 
Q 2766 1069 2766 1631 
L 2766 1759 
L 2194 1759 
z
M 3341 1997 
L 3341 0 
L 2766 0 
L 2766 531 
Q 2569 213 2275 61 
Q 1981 -91 1556 -91 
Q 1019 -91 701 211 
Q 384 513 384 1019 
Q 384 1609 779 1909 
Q 1175 2209 1959 2209 
L 2766 2209 
L 2766 2266 
Q 2766 2663 2505 2880 
Q 2244 3097 1772 3097 
Q 1472 3097 1187 3025 
Q 903 2953 641 2809 
L 641 3341 
Q 956 3463 1253 3523 
Q 1550 3584 1831 3584 
Q 2591 3584 2966 3190 
Q 3341 2797 3341 1997 
z
" id="DejaVuSans-61" transform="scale(0.015625)"/>
      <path d="M 1556 2509 
Q 1272 2256 1139 2004 
Q 1006 1753 1006 1478 
Q 1006 1022 1337 719 
Q 1669 416 2169 416 
Q 2466 416 2725 514 
Q 2984 613 3213 813 
L 1556 2509 
z
M 1997 2859 
L 3584 1234 
Q 3769 1513 3872 1830 
Q 3975 2147 3994 2503 
L 4575 2503 
Q 4538 2091 4375 1687 
Q 4213 1284 3922 891 
L 4794 0 
L 4006 0 
L 3559 459 
Q 3234 181 2878 45 
Q 2522 -91 2113 -91 
Q 1359 -91 881 339 
Q 403 769 403 1441 
Q 403 1841 612 2192 
Q 822 2544 1241 2853 
Q 1091 3050 1012 3245 
Q 934 3441 934 3628 
Q 934 4134 1281 4442 
Q 1628 4750 2203 4750 
Q 2463 4750 2720 4694 
Q 2978 4638 3244 4525 
L 3244 3956 
Q 2972 4103 2725 4179 
Q 2478 4256 2266 4256 
Q 1938 4256 1733 4082 
Q 1528 3909 1528 3634 
Q 1528 3475 1620 3314 
Q 1713 3153 1997 2859 
z
" id="DejaVuSans-26" transform="scale(0.015625)"/>
      <path d="M 750 794 
L 1409 794 
L 1409 256 
L 897 -744 
L 494 -744 
L 750 256 
L 750 794 
z
" id="DejaVuSans-2c" transform="scale(0.015625)"/>
      <path d="M 678 2906 
L 4684 2906 
L 4684 2381 
L 678 2381 
L 678 2906 
z
M 678 1631 
L 4684 1631 
L 4684 1100 
L 678 1100 
L 678 1631 
z
" id="DejaVuSans-3d" transform="scale(0.015625)"/>
      <path d="M 2113 2584 
Q 1688 2584 1439 2293 
Q 1191 2003 1191 1497 
Q 1191 994 1439 701 
Q 1688 409 2113 409 
Q 2538 409 2786 701 
Q 3034 994 3034 1497 
Q 3034 2003 2786 2293 
Q 2538 2584 2113 2584 
z
M 3366 4563 
L 3366 3988 
Q 3128 4100 2886 4159 
Q 2644 4219 2406 4219 
Q 1781 4219 1451 3797 
Q 1122 3375 1075 2522 
Q 1259 2794 1537 2939 
Q 1816 3084 2150 3084 
Q 2853 3084 3261 2657 
Q 3669 2231 3669 1497 
Q 3669 778 3244 343 
Q 2819 -91 2113 -91 
Q 1303 -91 875 529 
Q 447 1150 447 2328 
Q 447 3434 972 4092 
Q 1497 4750 2381 4750 
Q 2619 4750 2861 4703 
Q 3103 4656 3366 4563 
z
" id="DejaVuSans-36" transform="scale(0.015625)"/>
     </defs>
     <use xlink:href="#DejaVuSans-43"/>
     <use x="69.824219" xlink:href="#DejaVuSans-6f"/>
     <use x="131.005859" xlink:href="#DejaVuSans-72"/>
     <use x="170.369141" xlink:href="#DejaVuSans-72"/>
     <use x="209.232422" xlink:href="#DejaVuSans-65"/>
     <use x="270.755859" xlink:href="#DejaVuSans-6c"/>
     <use x="298.539062" xlink:href="#DejaVuSans-61"/>
     <use x="359.818359" xlink:href="#DejaVuSans-74"/>
     <use x="399.027344" xlink:href="#DejaVuSans-69"/>
     <use x="426.810547" xlink:href="#DejaVuSans-6f"/>
     <use x="487.992188" xlink:href="#DejaVuSans-6e"/>
     <use x="551.371094" xlink:href="#DejaVuSans-20"/>
     <use x="583.158203" xlink:href="#DejaVuSans-43"/>
     <use x="652.982422" xlink:href="#DejaVuSans-41"/>
     <use x="721.390625" xlink:href="#DejaVuSans-50"/>
     <use x="781.693359" xlink:href="#DejaVuSans-53"/>
     <use x="845.169922" xlink:href="#DejaVuSans-20"/>
     <use x="876.957031" xlink:href="#DejaVuSans-26"/>
     <use x="954.935547" xlink:href="#DejaVuSans-20"/>
     <use x="986.722656" xlink:href="#DejaVuSans-50"/>
     <use x="1047.025391" xlink:href="#DejaVuSans-44"/>
     <use x="1124.027344" xlink:href="#DejaVuSans-49"/>
     <use x="1153.519531" xlink:href="#DejaVuSans-2c"/>
     <use x="1185.306641" xlink:href="#DejaVuSans-20"/>
     <use x="1217.09375" xlink:href="#DejaVuSans-72"/>
     <use x="1258.207031" xlink:href="#DejaVuSans-3d"/>
     <use x="1341.996094" xlink:href="#DejaVuSans-30"/>
     <use x="1405.619141" xlink:href="#DejaVuSans-2e"/>
     <use x="1437.40625" xlink:href="#DejaVuSans-37"/>
     <use x="1501.029297" xlink:href="#DejaVuSans-36"/>
    </g>
   </g>
  </g>
  <g id="text_48">
   <!-- Experiment 2 -->
   <g transform="translate(489.509766 18.597656)scale(0.15 -0.15)">
    <defs>
     <path d="M 628 4666 
L 3578 4666 
L 3578 4134 
L 1259 4134 
L 1259 2753 
L 3481 2753 
L 3481 2222 
L 1259 2222 
L 1259 531 
L 3634 531 
L 3634 0 
L 628 0 
L 628 4666 
z
" id="DejaVuSans-45" transform="scale(0.015625)"/>
     <path d="M 3513 3500 
L 2247 1797 
L 3578 0 
L 2900 0 
L 1881 1375 
L 863 0 
L 184 0 
L 1544 1831 
L 300 3500 
L 978 3500 
L 1906 2253 
L 2834 3500 
L 3513 3500 
z
" id="DejaVuSans-78" transform="scale(0.015625)"/>
     <path d="M 1159 525 
L 1159 -1331 
L 581 -1331 
L 581 3500 
L 1159 3500 
L 1159 2969 
Q 1341 3281 1617 3432 
Q 1894 3584 2278 3584 
Q 2916 3584 3314 3078 
Q 3713 2572 3713 1747 
Q 3713 922 3314 415 
Q 2916 -91 2278 -91 
Q 1894 -91 1617 61 
Q 1341 213 1159 525 
z
M 3116 1747 
Q 3116 2381 2855 2742 
Q 2594 3103 2138 3103 
Q 1681 3103 1420 2742 
Q 1159 2381 1159 1747 
Q 1159 1113 1420 752 
Q 1681 391 2138 391 
Q 2594 391 2855 752 
Q 3116 1113 3116 1747 
z
" id="DejaVuSans-70" transform="scale(0.015625)"/>
    </defs>
    <use xlink:href="#DejaVuSans-45"/>
    <use x="63.183594" xlink:href="#DejaVuSans-78"/>
    <use x="122.363281" xlink:href="#DejaVuSans-70"/>
    <use x="185.839844" xlink:href="#DejaVuSans-65"/>
    <use x="247.363281" xlink:href="#DejaVuSans-72"/>
    <use x="288.476562" xlink:href="#DejaVuSans-69"/>
    <use x="316.259766" xlink:href="#DejaVuSans-6d"/>
    <use x="413.671875" xlink:href="#DejaVuSans-65"/>
    <use x="475.195312" xlink:href="#DejaVuSans-6e"/>
    <use x="538.574219" xlink:href="#DejaVuSans-74"/>
    <use x="577.783203" xlink:href="#DejaVuSans-20"/>
    <use x="609.570312" xlink:href="#DejaVuSans-32"/>
   </g>
  </g>
 </g>
 <defs>
  <clipPath id="p4caae568ab">
   <rect height="271.8" width="246.176471" x="135" y="43.2"/>
  </clipPath>
  <clipPath id="p48a5d97a5a">
   <rect height="271.8" width="246.176471" x="430.411765" y="43.2"/>
  </clipPath>
  <clipPath id="pd42a8e907d">
   <rect height="271.8" width="246.176471" x="725.823529" y="43.2"/>
  </clipPath>
 </defs>
</svg>
